solid CRVS
  facet normal -0.0000000000 -1.0000000000 -0.0000000000
    outer loop
      vertex 3.0000000000 0.0000000000 0.1000000000
      vertex 2.4600000381 0.0000000000 0.1000000015
      vertex 3.0000000000 0.0000000000 0.0700000003
    endloop
  endfacet
  facet normal 0.0000000000 -1.0000000000 0.0000000000
    outer loop
      vertex 2.4600000381 0.0000000000 0.1000000015
      vertex 2.4600000381 0.0000000000 0.0700000003
      vertex 3.0000000000 0.0000000000 0.0700000003
    endloop
  endfacet
  facet normal 0.0000000000 -1.0000000000 0.0000000000
    outer loop
      vertex 2.4600000381 0.0000000000 0.0700000003
      vertex 2.4600000381 0.0000000000 0.0299999993
      vertex 3.0000000000 0.0000000000 0.0700000003
    endloop
  endfacet
  facet normal 0.0000000000 -1.0000000000 0.0000000000
    outer loop
      vertex 2.4600000381 0.0000000000 0.0299999993
      vertex 3.0000000000 0.0000000000 0.0299999993
      vertex 3.0000000000 0.0000000000 0.0700000003
    endloop
  endfacet
  facet normal 0.0000000000 -1.0000000000 0.0000000000
    outer loop
      vertex 1.7400000095 0.0000000000 0.1000000015
      vertex 1.7400000095 0.0000000000 0.0700000003
      vertex 2.4600000381 0.0000000000 0.1000000015
    endloop
  endfacet
  facet normal 0.0000000000 -1.0000000000 0.0000000000
    outer loop
      vertex 1.7400000095 0.0000000000 0.0700000003
      vertex 2.4600000381 0.0000000000 0.0700000003
      vertex 2.4600000381 0.0000000000 0.1000000015
    endloop
  endfacet
  facet normal 0.0000000000 -1.0000000000 0.0000000000
    outer loop
      vertex 1.7400000095 0.0000000000 0.0299999993
      vertex 2.4600000381 0.0000000000 0.0700000003
      vertex 1.7400000095 0.0000000000 0.0700000003
    endloop
  endfacet
  facet normal 0.0000000000 -1.0000000000 0.0000000000
    outer loop
      vertex 1.7400000095 0.0000000000 0.0299999993
      vertex 2.4600000381 0.0000000000 0.0299999993
      vertex 2.4600000381 0.0000000000 0.0700000003
    endloop
  endfacet
  facet normal -0.0000000000 -1.0000000000 -0.0000000000
    outer loop
      vertex 3.0000000000 0.0000000000 0.0299999993
      vertex 2.4600000381 0.0000000000 0.0299999993
      vertex 3.0000000000 0.0000000000 0.0000000000
    endloop
  endfacet
  facet normal 0.0000000000 -1.0000000000 0.0000000000
    outer loop
      vertex 2.4600000381 0.0000000000 0.0299999993
      vertex 2.4600000381 0.0000000000 0.0000000000
      vertex 3.0000000000 0.0000000000 0.0000000000
    endloop
  endfacet
  facet normal -0.0000000000 -1.0000000000 -0.0000000000
    outer loop
      vertex 2.4600000381 0.0000000000 0.0299999993
      vertex 1.7400000095 0.0000000000 0.0299999993
      vertex 2.4600000381 0.0000000000 0.0000000000
    endloop
  endfacet
  facet normal 0.0000000000 -1.0000000000 0.0000000000
    outer loop
      vertex 1.7400000095 0.0000000000 0.0299999993
      vertex 1.7400000095 0.0000000000 0.0000000000
      vertex 2.4600000381 0.0000000000 0.0000000000
    endloop
  endfacet
  facet normal 0.0000000000 -1.0000000000 0.0000000000
    outer loop
      vertex 1.2000000477 0.0000000000 0.0700000003
      vertex 1.7400000095 0.0000000000 0.0700000003
      vertex 1.2000000000 0.0000000000 0.1000000000
    endloop
  endfacet
  facet normal 0.0000000000 -1.0000000000 0.0000000000
    outer loop
      vertex 1.7400000095 0.0000000000 0.0700000003
      vertex 1.7400000095 0.0000000000 0.1000000015
      vertex 1.2000000000 0.0000000000 0.1000000000
    endloop
  endfacet
  facet normal 0.0000000000 -1.0000000000 -0.0000000000
    outer loop
      vertex 1.7400000095 0.0000000000 0.0700000003
      vertex 1.2000000477 0.0000000000 0.0299999993
      vertex 1.7400000095 0.0000000000 0.0299999993
    endloop
  endfacet
  facet normal -0.0000000000 -1.0000000000 0.0000000000
    outer loop
      vertex 1.7400000095 0.0000000000 0.0700000003
      vertex 1.2000000477 0.0000000000 0.0700000003
      vertex 1.2000000477 0.0000000000 0.0299999993
    endloop
  endfacet
  facet normal -0.0000000001 -1.0000000000 -0.0000000000
    outer loop
      vertex 1.7400000095 0.0000000000 0.0299999993
      vertex 1.1999999285 0.0000000000 0.0000000000
      vertex 1.7400000095 0.0000000000 0.0000000000
    endloop
  endfacet
  facet normal -0.0000000000 -1.0000000000 -0.0000000016
    outer loop
      vertex 1.7400000095 0.0000000000 0.0299999993
      vertex 1.2000000477 0.0000000000 0.0299999993
      vertex 1.1999999285 0.0000000000 0.0000000000
    endloop
  endfacet
  facet normal 0.0001996911 -0.9999999801 0.0000000003
    outer loop
      vertex 1.2000000000 0.0000000000 0.1000000000
      vertex 1.1244976521 -0.0000150771 0.1000000015
      vertex 1.2000000477 0.0000000000 0.0700000003
    endloop
  endfacet
  facet normal 0.0001996910 -0.9999999801 0.0000000000
    outer loop
      vertex 1.1244976521 -0.0000150771 0.1000000015
      vertex 1.1244976521 -0.0000150771 0.0700000003
      vertex 1.2000000477 0.0000000000 0.0700000003
    endloop
  endfacet
  facet normal 0.0001996910 -0.9999999801 0.0000000000
    outer loop
      vertex 1.1244976521 -0.0000150771 0.0700000003
      vertex 1.1244976521 -0.0000150771 0.0299999993
      vertex 1.2000000477 0.0000000000 0.0700000003
    endloop
  endfacet
  facet normal 0.0001996910 -0.9999999801 0.0000000000
    outer loop
      vertex 1.1244976521 -0.0000150771 0.0299999993
      vertex 1.2000000477 0.0000000000 0.0299999993
      vertex 1.2000000477 0.0000000000 0.0700000003
    endloop
  endfacet
  facet normal -0.0014391263 -0.9999989645 -0.0000000000
    outer loop
      vertex 1.0489945412 0.0000935815 0.1000000015
      vertex 1.0489945412 0.0000935815 0.0700000003
      vertex 1.1244976521 -0.0000150771 0.1000000015
    endloop
  endfacet
  facet normal -0.0014391263 -0.9999989645 0.0000000000
    outer loop
      vertex 1.0489945412 0.0000935815 0.0700000003
      vertex 1.1244976521 -0.0000150771 0.0700000003
      vertex 1.1244976521 -0.0000150771 0.1000000015
    endloop
  endfacet
  facet normal -0.0014391263 -0.9999989645 0.0000000000
    outer loop
      vertex 1.0489945412 0.0000935815 0.0299999993
      vertex 1.1244976521 -0.0000150771 0.0700000003
      vertex 1.0489945412 0.0000935815 0.0700000003
    endloop
  endfacet
  facet normal -0.0014391263 -0.9999989645 0.0000000000
    outer loop
      vertex 1.0489945412 0.0000935815 0.0299999993
      vertex 1.1244976521 -0.0000150771 0.0299999993
      vertex 1.1244976521 -0.0000150771 0.0700000003
    endloop
  endfacet
  facet normal 0.0001996910 -0.9999999801 -0.0000000024
    outer loop
      vertex 1.2000000477 0.0000000000 0.0299999993
      vertex 1.1244976521 -0.0000150771 0.0299999993
      vertex 1.1999999285 0.0000000000 0.0000000000
    endloop
  endfacet
  facet normal 0.0001996919 -0.9999999801 0.0000000000
    outer loop
      vertex 1.1244976521 -0.0000150771 0.0299999993
      vertex 1.1244976521 -0.0000150771 0.0000000000
      vertex 1.1999999285 0.0000000000 0.0000000000
    endloop
  endfacet
  facet normal -0.0014391263 -0.9999989645 -0.0000000000
    outer loop
      vertex 1.1244976521 -0.0000150771 0.0299999993
      vertex 1.0489945412 0.0000935815 0.0299999993
      vertex 1.1244976521 -0.0000150771 0.0000000000
    endloop
  endfacet
  facet normal -0.0014391263 -0.9999989645 -0.0000000000
    outer loop
      vertex 1.0489945412 0.0000935815 0.0299999993
      vertex 1.0489945412 0.0000935815 0.0000000000
      vertex 1.1244976521 -0.0000150771 0.0000000000
    endloop
  endfacet
  facet normal -0.0127601658 -0.9999185858 -0.0000000000
    outer loop
      vertex 1.0114841461 0.0005722593 0.1000000015
      vertex 1.0114841461 0.0005722593 0.0700000003
      vertex 1.0489945412 0.0000935815 0.1000000015
    endloop
  endfacet
  facet normal -0.0127601658 -0.9999185858 0.0000000000
    outer loop
      vertex 1.0114841461 0.0005722593 0.0700000003
      vertex 1.0489945412 0.0000935815 0.0700000003
      vertex 1.0489945412 0.0000935815 0.1000000015
    endloop
  endfacet
  facet normal -0.0127601658 -0.9999185858 0.0000000000
    outer loop
      vertex 1.0114841461 0.0005722593 0.0299999993
      vertex 1.0489945412 0.0000935815 0.0700000003
      vertex 1.0114841461 0.0005722593 0.0700000003
    endloop
  endfacet
  facet normal -0.0127601658 -0.9999185858 0.0000000000
    outer loop
      vertex 1.0114841461 0.0005722593 0.0299999993
      vertex 1.0489945412 0.0000935815 0.0299999993
      vertex 1.0489945412 0.0000935815 0.0700000003
    endloop
  endfacet
  facet normal -0.0127601658 -0.9999185858 -0.0000000000
    outer loop
      vertex 1.0489945412 0.0000935815 0.0299999993
      vertex 1.0114841461 0.0005722593 0.0299999993
      vertex 1.0489945412 0.0000935815 0.0000000000
    endloop
  endfacet
  facet normal -0.0127601658 -0.9999185858 -0.0000000000
    outer loop
      vertex 1.0114841461 0.0005722593 0.0299999993
      vertex 1.0114841461 0.0005722593 0.0000000000
      vertex 1.0489945412 0.0000935815 0.0000000000
    endloop
  endfacet
  facet normal -0.0432963011 -0.9990622755 -0.0000000000
    outer loop
      vertex 0.9740126133 0.0021961608 0.1000000015
      vertex 0.9740126133 0.0021961608 0.0700000003
      vertex 1.0114841461 0.0005722593 0.1000000015
    endloop
  endfacet
  facet normal -0.0432963011 -0.9990622755 0.0000000000
    outer loop
      vertex 0.9740126133 0.0021961608 0.0700000003
      vertex 1.0114841461 0.0005722593 0.0700000003
      vertex 1.0114841461 0.0005722593 0.1000000015
    endloop
  endfacet
  facet normal -0.0432963011 -0.9990622755 0.0000000000
    outer loop
      vertex 0.9740126133 0.0021961608 0.0299999993
      vertex 1.0114841461 0.0005722593 0.0700000003
      vertex 0.9740126133 0.0021961608 0.0700000003
    endloop
  endfacet
  facet normal -0.0432963011 -0.9990622755 0.0000000000
    outer loop
      vertex 0.9740126133 0.0021961608 0.0299999993
      vertex 1.0114841461 0.0005722593 0.0299999993
      vertex 1.0114841461 0.0005722593 0.0700000003
    endloop
  endfacet
  facet normal -0.0811650748 -0.9967006725 -0.0000000000
    outer loop
      vertex 0.9551402330 0.0037330096 0.1000000015
      vertex 0.9551402330 0.0037330096 0.0700000003
      vertex 0.9740126133 0.0021961608 0.1000000015
    endloop
  endfacet
  facet normal -0.0811650748 -0.9967006725 0.0000000000
    outer loop
      vertex 0.9551402330 0.0037330096 0.0700000003
      vertex 0.9740126133 0.0021961608 0.0700000003
      vertex 0.9740126133 0.0021961608 0.1000000015
    endloop
  endfacet
  facet normal -0.0811650748 -0.9967006725 0.0000000000
    outer loop
      vertex 0.9551402330 0.0037330096 0.0299999993
      vertex 0.9740126133 0.0021961608 0.0700000003
      vertex 0.9551402330 0.0037330096 0.0700000003
    endloop
  endfacet
  facet normal -0.0811650748 -0.9967006725 0.0000000000
    outer loop
      vertex 0.9551402330 0.0037330096 0.0299999993
      vertex 0.9740126133 0.0021961608 0.0299999993
      vertex 0.9740126133 0.0021961608 0.0700000003
    endloop
  endfacet
  facet normal -0.0432963011 -0.9990622755 -0.0000000000
    outer loop
      vertex 1.0114841461 0.0005722593 0.0299999993
      vertex 0.9740126133 0.0021961608 0.0299999993
      vertex 1.0114841461 0.0005722593 0.0000000000
    endloop
  endfacet
  facet normal -0.0432963011 -0.9990622755 -0.0000000000
    outer loop
      vertex 0.9740126133 0.0021961608 0.0299999993
      vertex 0.9740126133 0.0021961608 0.0000000000
      vertex 1.0114841461 0.0005722593 0.0000000000
    endloop
  endfacet
  facet normal -0.0811650748 -0.9967006725 -0.0000000000
    outer loop
      vertex 0.9740126133 0.0021961608 0.0299999993
      vertex 0.9551402330 0.0037330096 0.0299999993
      vertex 0.9740126133 0.0021961608 0.0000000000
    endloop
  endfacet
  facet normal -0.0811650748 -0.9967006725 -0.0000000000
    outer loop
      vertex 0.9551402330 0.0037330096 0.0299999993
      vertex 0.9551402330 0.0037330096 0.0000000000
      vertex 0.9740126133 0.0021961608 0.0000000000
    endloop
  endfacet
  facet normal -0.1122502567 -0.9936799685 -0.0000000000
    outer loop
      vertex 0.9363239408 0.0058585769 0.1000000015
      vertex 0.9363239408 0.0058585769 0.0700000003
      vertex 0.9551402330 0.0037330096 0.1000000015
    endloop
  endfacet
  facet normal -0.1122502567 -0.9936799685 0.0000000000
    outer loop
      vertex 0.9363239408 0.0058585769 0.0700000003
      vertex 0.9551402330 0.0037330096 0.0700000003
      vertex 0.9551402330 0.0037330096 0.1000000015
    endloop
  endfacet
  facet normal -0.1122502567 -0.9936799685 0.0000000000
    outer loop
      vertex 0.9363239408 0.0058585769 0.0299999993
      vertex 0.9551402330 0.0037330096 0.0700000003
      vertex 0.9363239408 0.0058585769 0.0700000003
    endloop
  endfacet
  facet normal -0.1122502567 -0.9936799685 0.0000000000
    outer loop
      vertex 0.9363239408 0.0058585769 0.0299999993
      vertex 0.9551402330 0.0037330096 0.0299999993
      vertex 0.9551402330 0.0037330096 0.0700000003
    endloop
  endfacet
  facet normal -0.1122502567 -0.9936799685 -0.0000000000
    outer loop
      vertex 0.9551402330 0.0037330096 0.0299999993
      vertex 0.9363239408 0.0058585769 0.0299999993
      vertex 0.9551402330 0.0037330096 0.0000000000
    endloop
  endfacet
  facet normal -0.1122502567 -0.9936799685 -0.0000000000
    outer loop
      vertex 0.9363239408 0.0058585769 0.0299999993
      vertex 0.9363239408 0.0058585769 0.0000000000
      vertex 0.9551402330 0.0037330096 0.0000000000
    endloop
  endfacet
  facet normal -0.1466938069 -0.9891819484 -0.0000000000
    outer loop
      vertex 0.9176001549 0.0086352788 0.1000000015
      vertex 0.9176001549 0.0086352788 0.0700000003
      vertex 0.9363239408 0.0058585769 0.1000000015
    endloop
  endfacet
  facet normal -0.1466938069 -0.9891819484 0.0000000000
    outer loop
      vertex 0.9176001549 0.0086352788 0.0700000003
      vertex 0.9363239408 0.0058585769 0.0700000003
      vertex 0.9363239408 0.0058585769 0.1000000015
    endloop
  endfacet
  facet normal -0.1466938069 -0.9891819484 0.0000000000
    outer loop
      vertex 0.9176001549 0.0086352788 0.0299999993
      vertex 0.9363239408 0.0058585769 0.0700000003
      vertex 0.9176001549 0.0086352788 0.0700000003
    endloop
  endfacet
  facet normal -0.1466938069 -0.9891819484 0.0000000000
    outer loop
      vertex 0.9176001549 0.0086352788 0.0299999993
      vertex 0.9363239408 0.0058585769 0.0299999993
      vertex 0.9363239408 0.0058585769 0.0700000003
    endloop
  endfacet
  facet normal -0.1844770326 -0.9828368249 -0.0000000000
    outer loop
      vertex 0.8990051746 0.0121255293 0.1000000015
      vertex 0.8990051746 0.0121255293 0.0700000003
      vertex 0.9176001549 0.0086352788 0.1000000015
    endloop
  endfacet
  facet normal -0.1844770326 -0.9828368249 0.0000000000
    outer loop
      vertex 0.8990051746 0.0121255293 0.0700000003
      vertex 0.9176001549 0.0086352788 0.0700000003
      vertex 0.9176001549 0.0086352788 0.1000000015
    endloop
  endfacet
  facet normal -0.1844770326 -0.9828368249 0.0000000000
    outer loop
      vertex 0.8990051746 0.0121255293 0.0299999993
      vertex 0.9176001549 0.0086352788 0.0700000003
      vertex 0.8990051746 0.0121255293 0.0700000003
    endloop
  endfacet
  facet normal -0.1844770326 -0.9828368249 0.0000000000
    outer loop
      vertex 0.8990051746 0.0121255293 0.0299999993
      vertex 0.9176001549 0.0086352788 0.0299999993
      vertex 0.9176001549 0.0086352788 0.0700000003
    endloop
  endfacet
  facet normal -0.1466938069 -0.9891819484 -0.0000000000
    outer loop
      vertex 0.9363239408 0.0058585769 0.0299999993
      vertex 0.9176001549 0.0086352788 0.0299999993
      vertex 0.9363239408 0.0058585769 0.0000000000
    endloop
  endfacet
  facet normal -0.1466938069 -0.9891819484 -0.0000000000
    outer loop
      vertex 0.9176001549 0.0086352788 0.0299999993
      vertex 0.9176001549 0.0086352788 0.0000000000
      vertex 0.9363239408 0.0058585769 0.0000000000
    endloop
  endfacet
  facet normal -0.1844770326 -0.9828368249 -0.0000000000
    outer loop
      vertex 0.9176001549 0.0086352788 0.0299999993
      vertex 0.8990051746 0.0121255293 0.0299999993
      vertex 0.9176001549 0.0086352788 0.0000000000
    endloop
  endfacet
  facet normal -0.1844770326 -0.9828368249 -0.0000000000
    outer loop
      vertex 0.8990051746 0.0121255293 0.0299999993
      vertex 0.8990051746 0.0121255293 0.0000000000
      vertex 0.9176001549 0.0086352788 0.0000000000
    endloop
  endfacet
  facet normal -0.2248990074 -0.9743820793 -0.0000000000
    outer loop
      vertex 0.8799786568 0.0165170766 0.1000000015
      vertex 0.8799786568 0.0165170766 0.0700000003
      vertex 0.8990051746 0.0121255293 0.1000000015
    endloop
  endfacet
  facet normal -0.2248990074 -0.9743820793 0.0000000000
    outer loop
      vertex 0.8799786568 0.0165170766 0.0700000003
      vertex 0.8990051746 0.0121255293 0.0700000003
      vertex 0.8990051746 0.0121255293 0.1000000015
    endloop
  endfacet
  facet normal -0.2248990074 -0.9743820793 0.0000000000
    outer loop
      vertex 0.8799786568 0.0165170766 0.0299999993
      vertex 0.8990051746 0.0121255293 0.0700000003
      vertex 0.8799786568 0.0165170766 0.0700000003
    endloop
  endfacet
  facet normal -0.2248990074 -0.9743820793 0.0000000000
    outer loop
      vertex 0.8799786568 0.0165170766 0.0299999993
      vertex 0.8990051746 0.0121255293 0.0299999993
      vertex 0.8990051746 0.0121255293 0.0700000003
    endloop
  endfacet
  facet normal -0.2248990074 -0.9743820793 -0.0000000000
    outer loop
      vertex 0.8990051746 0.0121255293 0.0299999993
      vertex 0.8799786568 0.0165170766 0.0299999993
      vertex 0.8990051746 0.0121255293 0.0000000000
    endloop
  endfacet
  facet normal -0.2248990074 -0.9743820793 -0.0000000000
    outer loop
      vertex 0.8799786568 0.0165170766 0.0299999993
      vertex 0.8799786568 0.0165170766 0.0000000000
      vertex 0.8990051746 0.0121255293 0.0000000000
    endloop
  endfacet
  facet normal -0.2627469268 -0.9648647845 -0.0000000000
    outer loop
      vertex 0.8611313105 0.0216494873 0.1000000015
      vertex 0.8611313105 0.0216494873 0.0700000003
      vertex 0.8799786568 0.0165170766 0.1000000015
    endloop
  endfacet
  facet normal -0.2627469268 -0.9648647845 0.0000000000
    outer loop
      vertex 0.8611313105 0.0216494873 0.0700000003
      vertex 0.8799786568 0.0165170766 0.0700000003
      vertex 0.8799786568 0.0165170766 0.1000000015
    endloop
  endfacet
  facet normal -0.2627469268 -0.9648647845 0.0000000000
    outer loop
      vertex 0.8611313105 0.0216494873 0.0299999993
      vertex 0.8799786568 0.0165170766 0.0700000003
      vertex 0.8611313105 0.0216494873 0.0700000003
    endloop
  endfacet
  facet normal -0.2627469268 -0.9648647845 0.0000000000
    outer loop
      vertex 0.8611313105 0.0216494873 0.0299999993
      vertex 0.8799786568 0.0165170766 0.0299999993
      vertex 0.8799786568 0.0165170766 0.0700000003
    endloop
  endfacet
  facet normal -0.2961557016 -0.9551396759 -0.0000000000
    outer loop
      vertex 0.8424663544 0.0274368431 0.1000000015
      vertex 0.8424663544 0.0274368431 0.0700000003
      vertex 0.8611313105 0.0216494873 0.1000000015
    endloop
  endfacet
  facet normal -0.2961557016 -0.9551396759 0.0000000000
    outer loop
      vertex 0.8424663544 0.0274368431 0.0700000003
      vertex 0.8611313105 0.0216494873 0.0700000003
      vertex 0.8611313105 0.0216494873 0.1000000015
    endloop
  endfacet
  facet normal -0.2961557016 -0.9551396759 0.0000000000
    outer loop
      vertex 0.8424663544 0.0274368431 0.0299999993
      vertex 0.8611313105 0.0216494873 0.0700000003
      vertex 0.8424663544 0.0274368431 0.0700000003
    endloop
  endfacet
  facet normal -0.2961557016 -0.9551396759 0.0000000000
    outer loop
      vertex 0.8424663544 0.0274368431 0.0299999993
      vertex 0.8611313105 0.0216494873 0.0299999993
      vertex 0.8611313105 0.0216494873 0.0700000003
    endloop
  endfacet
  facet normal -0.2627469268 -0.9648647845 -0.0000000000
    outer loop
      vertex 0.8799786568 0.0165170766 0.0299999993
      vertex 0.8611313105 0.0216494873 0.0299999993
      vertex 0.8799786568 0.0165170766 0.0000000000
    endloop
  endfacet
  facet normal -0.2627469268 -0.9648647845 -0.0000000000
    outer loop
      vertex 0.8611313105 0.0216494873 0.0299999993
      vertex 0.8611313105 0.0216494873 0.0000000000
      vertex 0.8799786568 0.0165170766 0.0000000000
    endloop
  endfacet
  facet normal -0.2961557016 -0.9551396759 -0.0000000000
    outer loop
      vertex 0.8611313105 0.0216494873 0.0299999993
      vertex 0.8424663544 0.0274368431 0.0299999993
      vertex 0.8611313105 0.0216494873 0.0000000000
    endloop
  endfacet
  facet normal -0.2961557016 -0.9551396759 -0.0000000000
    outer loop
      vertex 0.8424663544 0.0274368431 0.0299999993
      vertex 0.8424663544 0.0274368431 0.0000000000
      vertex 0.8611313105 0.0216494873 0.0000000000
    endloop
  endfacet
  facet normal -0.3252649071 -0.9456229376 -0.0000000000
    outer loop
      vertex 0.8239868283 0.0337932259 0.1000000015
      vertex 0.8239868283 0.0337932259 0.0700000003
      vertex 0.8424663544 0.0274368431 0.1000000015
    endloop
  endfacet
  facet normal -0.3252649071 -0.9456229376 0.0000000000
    outer loop
      vertex 0.8239868283 0.0337932259 0.0700000003
      vertex 0.8424663544 0.0274368431 0.0700000003
      vertex 0.8424663544 0.0274368431 0.1000000015
    endloop
  endfacet
  facet normal -0.3252649071 -0.9456229376 0.0000000000
    outer loop
      vertex 0.8239868283 0.0337932259 0.0299999993
      vertex 0.8424663544 0.0274368431 0.0700000003
      vertex 0.8239868283 0.0337932259 0.0700000003
    endloop
  endfacet
  facet normal -0.3252649071 -0.9456229376 0.0000000000
    outer loop
      vertex 0.8239868283 0.0337932259 0.0299999993
      vertex 0.8424663544 0.0274368431 0.0299999993
      vertex 0.8424663544 0.0274368431 0.0700000003
    endloop
  endfacet
  facet normal -0.3585234544 -0.9335207189 -0.0000000000
    outer loop
      vertex 0.7863622904 0.0482431240 0.1000000015
      vertex 0.7863622904 0.0482431240 0.0700000003
      vertex 0.8239868283 0.0337932259 0.1000000015
    endloop
  endfacet
  facet normal -0.3585234544 -0.9335207189 0.0000000000
    outer loop
      vertex 0.7863622904 0.0482431240 0.0700000003
      vertex 0.8239868283 0.0337932259 0.0700000003
      vertex 0.8239868283 0.0337932259 0.1000000015
    endloop
  endfacet
  facet normal -0.3585234544 -0.9335207189 0.0000000000
    outer loop
      vertex 0.7863622904 0.0482431240 0.0299999993
      vertex 0.8239868283 0.0337932259 0.0700000003
      vertex 0.7863622904 0.0482431240 0.0700000003
    endloop
  endfacet
  facet normal -0.3585234544 -0.9335207189 0.0000000000
    outer loop
      vertex 0.7863622904 0.0482431240 0.0299999993
      vertex 0.8239868283 0.0337932259 0.0299999993
      vertex 0.8239868283 0.0337932259 0.0700000003
    endloop
  endfacet
  facet normal -0.3252649071 -0.9456229376 -0.0000000000
    outer loop
      vertex 0.8424663544 0.0274368431 0.0299999993
      vertex 0.8239868283 0.0337932259 0.0299999993
      vertex 0.8424663544 0.0274368431 0.0000000000
    endloop
  endfacet
  facet normal -0.3252649071 -0.9456229376 -0.0000000000
    outer loop
      vertex 0.8239868283 0.0337932259 0.0299999993
      vertex 0.8239868283 0.0337932259 0.0000000000
      vertex 0.8424663544 0.0274368431 0.0000000000
    endloop
  endfacet
  facet normal -0.3585234544 -0.9335207189 -0.0000000000
    outer loop
      vertex 0.8239868283 0.0337932259 0.0299999993
      vertex 0.7863622904 0.0482431240 0.0299999993
      vertex 0.8239868283 0.0337932259 0.0000000000
    endloop
  endfacet
  facet normal -0.3585234544 -0.9335207189 -0.0000000000
    outer loop
      vertex 0.7863622904 0.0482431240 0.0299999993
      vertex 0.7863622904 0.0482431240 0.0000000000
      vertex 0.8239868283 0.0337932259 0.0000000000
    endloop
  endfacet
  facet normal -0.3763350527 -0.9264836362 -0.0000000000
    outer loop
      vertex 0.7490082383 0.0634162351 0.1000000015
      vertex 0.7490082383 0.0634162351 0.0700000003
      vertex 0.7863622904 0.0482431240 0.1000000015
    endloop
  endfacet
  facet normal -0.3763350527 -0.9264836362 0.0000000000
    outer loop
      vertex 0.7490082383 0.0634162351 0.0700000003
      vertex 0.7863622904 0.0482431240 0.0700000003
      vertex 0.7863622904 0.0482431240 0.1000000015
    endloop
  endfacet
  facet normal -0.3763350527 -0.9264836362 0.0000000000
    outer loop
      vertex 0.7490082383 0.0634162351 0.0299999993
      vertex 0.7863622904 0.0482431240 0.0700000003
      vertex 0.7490082383 0.0634162351 0.0700000003
    endloop
  endfacet
  facet normal -0.3763350527 -0.9264836362 0.0000000000
    outer loop
      vertex 0.7490082383 0.0634162351 0.0299999993
      vertex 0.7863622904 0.0482431240 0.0299999993
      vertex 0.7863622904 0.0482431240 0.0700000003
    endloop
  endfacet
  facet normal -0.3763350527 -0.9264836362 -0.0000000000
    outer loop
      vertex 0.7863622904 0.0482431240 0.0299999993
      vertex 0.7490082383 0.0634162351 0.0299999993
      vertex 0.7863622904 0.0482431240 0.0000000000
    endloop
  endfacet
  facet normal -0.3763350527 -0.9264836362 -0.0000000000
    outer loop
      vertex 0.7490082383 0.0634162351 0.0299999993
      vertex 0.7490082383 0.0634162351 0.0000000000
      vertex 0.7863622904 0.0482431240 0.0000000000
    endloop
  endfacet
  facet normal -0.3686592170 -0.9295646194 -0.0000000000
    outer loop
      vertex 0.7305196524 0.0707486868 0.1000000015
      vertex 0.7305196524 0.0707486868 0.0700000003
      vertex 0.7490082383 0.0634162351 0.1000000015
    endloop
  endfacet
  facet normal -0.3686592170 -0.9295646194 0.0000000000
    outer loop
      vertex 0.7305196524 0.0707486868 0.0700000003
      vertex 0.7490082383 0.0634162351 0.0700000003
      vertex 0.7490082383 0.0634162351 0.1000000015
    endloop
  endfacet
  facet normal -0.3686592170 -0.9295646194 0.0000000000
    outer loop
      vertex 0.7305196524 0.0707486868 0.0299999993
      vertex 0.7490082383 0.0634162351 0.0700000003
      vertex 0.7305196524 0.0707486868 0.0700000003
    endloop
  endfacet
  facet normal -0.3686592170 -0.9295646194 0.0000000000
    outer loop
      vertex 0.7305196524 0.0707486868 0.0299999993
      vertex 0.7490082383 0.0634162351 0.0299999993
      vertex 0.7490082383 0.0634162351 0.0700000003
    endloop
  endfacet
  facet normal -0.3503711763 -0.9366109325 -0.0000000000
    outer loop
      vertex 0.7119010687 0.0777136013 0.1000000015
      vertex 0.7119010687 0.0777136013 0.0700000003
      vertex 0.7305196524 0.0707486868 0.1000000015
    endloop
  endfacet
  facet normal -0.3503711763 -0.9366109325 0.0000000000
    outer loop
      vertex 0.7119010687 0.0777136013 0.0700000003
      vertex 0.7305196524 0.0707486868 0.0700000003
      vertex 0.7305196524 0.0707486868 0.1000000015
    endloop
  endfacet
  facet normal -0.3503711763 -0.9366109325 0.0000000000
    outer loop
      vertex 0.7119010687 0.0777136013 0.0299999993
      vertex 0.7305196524 0.0707486868 0.0700000003
      vertex 0.7119010687 0.0777136013 0.0700000003
    endloop
  endfacet
  facet normal -0.3503711763 -0.9366109325 0.0000000000
    outer loop
      vertex 0.7119010687 0.0777136013 0.0299999993
      vertex 0.7305196524 0.0707486868 0.0299999993
      vertex 0.7305196524 0.0707486868 0.0700000003
    endloop
  endfacet
  facet normal -0.3686592170 -0.9295646194 -0.0000000000
    outer loop
      vertex 0.7490082383 0.0634162351 0.0299999993
      vertex 0.7305196524 0.0707486868 0.0299999993
      vertex 0.7490082383 0.0634162351 0.0000000000
    endloop
  endfacet
  facet normal -0.3686592170 -0.9295646194 -0.0000000000
    outer loop
      vertex 0.7305196524 0.0707486868 0.0299999993
      vertex 0.7305196524 0.0707486868 0.0000000000
      vertex 0.7490082383 0.0634162351 0.0000000000
    endloop
  endfacet
  facet normal -0.3503711763 -0.9366109325 -0.0000000000
    outer loop
      vertex 0.7305196524 0.0707486868 0.0299999993
      vertex 0.7119010687 0.0777136013 0.0299999993
      vertex 0.7305196524 0.0707486868 0.0000000000
    endloop
  endfacet
  facet normal -0.3503711763 -0.9366109325 -0.0000000000
    outer loop
      vertex 0.7119010687 0.0777136013 0.0299999993
      vertex 0.7119010687 0.0777136013 0.0000000000
      vertex 0.7305196524 0.0707486868 0.0000000000
    endloop
  endfacet
  facet normal -0.3210605298 -0.9470586762 -0.0000000000
    outer loop
      vertex 0.6930862069 0.0840919912 0.1000000015
      vertex 0.6930862069 0.0840919912 0.0700000003
      vertex 0.7119010687 0.0777136013 0.1000000015
    endloop
  endfacet
  facet normal -0.3210605298 -0.9470586762 0.0000000000
    outer loop
      vertex 0.6930862069 0.0840919912 0.0700000003
      vertex 0.7119010687 0.0777136013 0.0700000003
      vertex 0.7119010687 0.0777136013 0.1000000015
    endloop
  endfacet
  facet normal -0.3210605298 -0.9470586762 0.0000000000
    outer loop
      vertex 0.6930862069 0.0840919912 0.0299999993
      vertex 0.7119010687 0.0777136013 0.0700000003
      vertex 0.6930862069 0.0840919912 0.0700000003
    endloop
  endfacet
  facet normal -0.3210605298 -0.9470586762 0.0000000000
    outer loop
      vertex 0.6930862069 0.0840919912 0.0299999993
      vertex 0.7119010687 0.0777136013 0.0299999993
      vertex 0.7119010687 0.0777136013 0.0700000003
    endloop
  endfacet
  facet normal -0.3210605298 -0.9470586762 -0.0000000000
    outer loop
      vertex 0.7119010687 0.0777136013 0.0299999993
      vertex 0.6930862069 0.0840919912 0.0299999993
      vertex 0.7119010687 0.0777136013 0.0000000000
    endloop
  endfacet
  facet normal -0.3210605298 -0.9470586762 -0.0000000000
    outer loop
      vertex 0.6930862069 0.0840919912 0.0299999993
      vertex 0.6930862069 0.0840919912 0.0000000000
      vertex 0.7119010687 0.0777136013 0.0000000000
    endloop
  endfacet
  facet normal -0.2803995900 -0.9598833627 -0.0000000000
    outer loop
      vertex 0.6740088463 0.0896648392 0.1000000015
      vertex 0.6740088463 0.0896648392 0.0700000003
      vertex 0.6930862069 0.0840919912 0.1000000015
    endloop
  endfacet
  facet normal -0.2803995900 -0.9598833627 0.0000000000
    outer loop
      vertex 0.6740088463 0.0896648392 0.0700000003
      vertex 0.6930862069 0.0840919912 0.0700000003
      vertex 0.6930862069 0.0840919912 0.1000000015
    endloop
  endfacet
  facet normal -0.2803995900 -0.9598833627 0.0000000000
    outer loop
      vertex 0.6740088463 0.0896648392 0.0299999993
      vertex 0.6930862069 0.0840919912 0.0700000003
      vertex 0.6740088463 0.0896648392 0.0700000003
    endloop
  endfacet
  facet normal -0.2803995900 -0.9598833627 0.0000000000
    outer loop
      vertex 0.6740088463 0.0896648392 0.0299999993
      vertex 0.6930862069 0.0840919912 0.0299999993
      vertex 0.6930862069 0.0840919912 0.0700000003
    endloop
  endfacet
  facet normal -0.2304914109 -0.9730743597 -0.0000000000
    outer loop
      vertex 0.6557607651 0.0939872488 0.1000000015
      vertex 0.6557607651 0.0939872488 0.0700000003
      vertex 0.6740088463 0.0896648392 0.1000000015
    endloop
  endfacet
  facet normal -0.2304914109 -0.9730743597 0.0000000000
    outer loop
      vertex 0.6557607651 0.0939872488 0.0700000003
      vertex 0.6740088463 0.0896648392 0.0700000003
      vertex 0.6740088463 0.0896648392 0.1000000015
    endloop
  endfacet
  facet normal -0.2304914109 -0.9730743597 0.0000000000
    outer loop
      vertex 0.6557607651 0.0939872488 0.0299999993
      vertex 0.6740088463 0.0896648392 0.0700000003
      vertex 0.6557607651 0.0939872488 0.0700000003
    endloop
  endfacet
  facet normal -0.2304914109 -0.9730743597 0.0000000000
    outer loop
      vertex 0.6557607651 0.0939872488 0.0299999993
      vertex 0.6740088463 0.0896648392 0.0299999993
      vertex 0.6740088463 0.0896648392 0.0700000003
    endloop
  endfacet
  facet normal -0.2803995900 -0.9598833627 -0.0000000000
    outer loop
      vertex 0.6930862069 0.0840919912 0.0299999993
      vertex 0.6740088463 0.0896648392 0.0299999993
      vertex 0.6930862069 0.0840919912 0.0000000000
    endloop
  endfacet
  facet normal -0.2803995900 -0.9598833627 -0.0000000000
    outer loop
      vertex 0.6740088463 0.0896648392 0.0299999993
      vertex 0.6740088463 0.0896648392 0.0000000000
      vertex 0.6930862069 0.0840919912 0.0000000000
    endloop
  endfacet
  facet normal -0.2304914109 -0.9730743597 -0.0000000000
    outer loop
      vertex 0.6740088463 0.0896648392 0.0299999993
      vertex 0.6557607651 0.0939872488 0.0299999993
      vertex 0.6740088463 0.0896648392 0.0000000000
    endloop
  endfacet
  facet normal -0.2304914109 -0.9730743597 -0.0000000000
    outer loop
      vertex 0.6557607651 0.0939872488 0.0299999993
      vertex 0.6557607651 0.0939872488 0.0000000000
      vertex 0.6740088463 0.0896648392 0.0000000000
    endloop
  endfacet
  facet normal -0.1742433820 -0.9847026169 -0.0000000000
    outer loop
      vertex 0.6372941732 0.0972549170 0.1000000015
      vertex 0.6372941732 0.0972549170 0.0700000003
      vertex 0.6557607651 0.0939872488 0.1000000015
    endloop
  endfacet
  facet normal -0.1742433820 -0.9847026169 0.0000000000
    outer loop
      vertex 0.6372941732 0.0972549170 0.0700000003
      vertex 0.6557607651 0.0939872488 0.0700000003
      vertex 0.6557607651 0.0939872488 0.1000000015
    endloop
  endfacet
  facet normal -0.1742433820 -0.9847026169 0.0000000000
    outer loop
      vertex 0.6372941732 0.0972549170 0.0299999993
      vertex 0.6557607651 0.0939872488 0.0700000003
      vertex 0.6372941732 0.0972549170 0.0700000003
    endloop
  endfacet
  facet normal -0.1742433820 -0.9847026169 0.0000000000
    outer loop
      vertex 0.6372941732 0.0972549170 0.0299999993
      vertex 0.6557607651 0.0939872488 0.0299999993
      vertex 0.6557607651 0.0939872488 0.0700000003
    endloop
  endfacet
  facet normal -0.1742433820 -0.9847026169 -0.0000000000
    outer loop
      vertex 0.6557607651 0.0939872488 0.0299999993
      vertex 0.6372941732 0.0972549170 0.0299999993
      vertex 0.6557607651 0.0939872488 0.0000000000
    endloop
  endfacet
  facet normal -0.1742433820 -0.9847026169 -0.0000000000
    outer loop
      vertex 0.6372941732 0.0972549170 0.0299999993
      vertex 0.6372941732 0.0972549170 0.0000000000
      vertex 0.6557607651 0.0939872488 0.0000000000
    endloop
  endfacet
  facet normal -0.1103940582 -0.9938878971 -0.0000000000
    outer loop
      vertex 0.6186825037 0.0993221700 0.1000000015
      vertex 0.6186825037 0.0993221700 0.0700000003
      vertex 0.6372941732 0.0972549170 0.1000000015
    endloop
  endfacet
  facet normal -0.1103940582 -0.9938878971 0.0000000000
    outer loop
      vertex 0.6186825037 0.0993221700 0.0700000003
      vertex 0.6372941732 0.0972549170 0.0700000003
      vertex 0.6372941732 0.0972549170 0.1000000015
    endloop
  endfacet
  facet normal -0.1103940582 -0.9938878971 0.0000000000
    outer loop
      vertex 0.6186825037 0.0993221700 0.0299999993
      vertex 0.6372941732 0.0972549170 0.0700000003
      vertex 0.6186825037 0.0993221700 0.0700000003
    endloop
  endfacet
  facet normal -0.1103940582 -0.9938878971 0.0000000000
    outer loop
      vertex 0.6186825037 0.0993221700 0.0299999993
      vertex 0.6372941732 0.0972549170 0.0299999993
      vertex 0.6372941732 0.0972549170 0.0700000003
    endloop
  endfacet
  facet normal -0.0385684353 -0.9992559611 -0.0000000000
    outer loop
      vertex 0.5999988914 0.1000433043 0.1000000015
      vertex 0.5999988914 0.1000433043 0.0700000003
      vertex 0.6186825037 0.0993221700 0.1000000015
    endloop
  endfacet
  facet normal -0.0385684353 -0.9992559611 0.0000000000
    outer loop
      vertex 0.5999988914 0.1000433043 0.0700000003
      vertex 0.6186825037 0.0993221700 0.0700000003
      vertex 0.6186825037 0.0993221700 0.1000000015
    endloop
  endfacet
  facet normal -0.0385684353 -0.9992559611 0.0000000000
    outer loop
      vertex 0.5999988914 0.1000433043 0.0299999993
      vertex 0.6186825037 0.0993221700 0.0700000003
      vertex 0.5999988914 0.1000433043 0.0700000003
    endloop
  endfacet
  facet normal -0.0385684353 -0.9992559611 0.0000000000
    outer loop
      vertex 0.5999988914 0.1000433043 0.0299999993
      vertex 0.6186825037 0.0993221700 0.0299999993
      vertex 0.6186825037 0.0993221700 0.0700000003
    endloop
  endfacet
  facet normal -0.1103940582 -0.9938878971 -0.0000000000
    outer loop
      vertex 0.6372941732 0.0972549170 0.0299999993
      vertex 0.6186825037 0.0993221700 0.0299999993
      vertex 0.6372941732 0.0972549170 0.0000000000
    endloop
  endfacet
  facet normal -0.1103940582 -0.9938878971 -0.0000000000
    outer loop
      vertex 0.6186825037 0.0993221700 0.0299999993
      vertex 0.6186825037 0.0993221700 0.0000000000
      vertex 0.6372941732 0.0972549170 0.0000000000
    endloop
  endfacet
  facet normal -0.0385684353 -0.9992559611 -0.0000000000
    outer loop
      vertex 0.6186825037 0.0993221700 0.0299999993
      vertex 0.5999988914 0.1000433043 0.0299999993
      vertex 0.6186825037 0.0993221700 0.0000000000
    endloop
  endfacet
  facet normal -0.0385684353 -0.9992559611 -0.0000000000
    outer loop
      vertex 0.5999988914 0.1000433043 0.0299999993
      vertex 0.5999988914 0.1000433043 0.0000000000
      vertex 0.6186825037 0.0993221700 0.0000000000
    endloop
  endfacet
  facet normal 0.0391417425 -0.9992336684 0.0000000000
    outer loop
      vertex 0.5810546875 0.0993012264 0.1000000015
      vertex 0.5810546875 0.0993012264 0.0700000003
      vertex 0.5999988914 0.1000433043 0.1000000015
    endloop
  endfacet
  facet normal 0.0391417425 -0.9992336684 0.0000000000
    outer loop
      vertex 0.5810546875 0.0993012264 0.0700000003
      vertex 0.5999988914 0.1000433043 0.0700000003
      vertex 0.5999988914 0.1000433043 0.1000000015
    endloop
  endfacet
  facet normal 0.0391417425 -0.9992336684 0.0000000000
    outer loop
      vertex 0.5810546875 0.0993012264 0.0299999993
      vertex 0.5999988914 0.1000433043 0.0700000003
      vertex 0.5810546875 0.0993012264 0.0700000003
    endloop
  endfacet
  facet normal 0.0391417425 -0.9992336684 0.0000000000
    outer loop
      vertex 0.5810546875 0.0993012264 0.0299999993
      vertex 0.5999988914 0.1000433043 0.0299999993
      vertex 0.5999988914 0.1000433043 0.0700000003
    endloop
  endfacet
  facet normal 0.1118520054 -0.9937248759 0.0000000000
    outer loop
      vertex 0.5621864200 0.0971774459 0.1000000015
      vertex 0.5621864200 0.0971774459 0.0700000003
      vertex 0.5810546875 0.0993012264 0.1000000015
    endloop
  endfacet
  facet normal 0.1118520054 -0.9937248759 0.0000000000
    outer loop
      vertex 0.5621864200 0.0971774459 0.0700000003
      vertex 0.5810546875 0.0993012264 0.0700000003
      vertex 0.5810546875 0.0993012264 0.1000000015
    endloop
  endfacet
  facet normal 0.1118520054 -0.9937248759 0.0000000000
    outer loop
      vertex 0.5621864200 0.0971774459 0.0299999993
      vertex 0.5810546875 0.0993012264 0.0700000003
      vertex 0.5621864200 0.0971774459 0.0700000003
    endloop
  endfacet
  facet normal 0.1118520054 -0.9937248759 0.0000000000
    outer loop
      vertex 0.5621864200 0.0971774459 0.0299999993
      vertex 0.5810546875 0.0993012264 0.0299999993
      vertex 0.5810546875 0.0993012264 0.0700000003
    endloop
  endfacet
  facet normal 0.0391417425 -0.9992336684 0.0000000000
    outer loop
      vertex 0.5999988914 0.1000433043 0.0299999993
      vertex 0.5810546875 0.0993012264 0.0299999993
      vertex 0.5999988914 0.1000433043 0.0000000000
    endloop
  endfacet
  facet normal 0.0391417425 -0.9992336684 0.0000000000
    outer loop
      vertex 0.5810546875 0.0993012264 0.0299999993
      vertex 0.5810546875 0.0993012264 0.0000000000
      vertex 0.5999988914 0.1000433043 0.0000000000
    endloop
  endfacet
  facet normal 0.1118520054 -0.9937248759 0.0000000000
    outer loop
      vertex 0.5810546875 0.0993012264 0.0299999993
      vertex 0.5621864200 0.0971774459 0.0299999993
      vertex 0.5810546875 0.0993012264 0.0000000000
    endloop
  endfacet
  facet normal 0.1118520054 -0.9937248759 0.0000000000
    outer loop
      vertex 0.5621864200 0.0971774459 0.0299999993
      vertex 0.5621864200 0.0971774459 0.0000000000
      vertex 0.5810546875 0.0993012264 0.0000000000
    endloop
  endfacet
  facet normal 0.1763401516 -0.9843292899 0.0000000000
    outer loop
      vertex 0.5434687138 0.0938242152 0.1000000015
      vertex 0.5434687138 0.0938242152 0.0700000003
      vertex 0.5621864200 0.0971774459 0.1000000015
    endloop
  endfacet
  facet normal 0.1763401516 -0.9843292899 0.0000000000
    outer loop
      vertex 0.5434687138 0.0938242152 0.0700000003
      vertex 0.5621864200 0.0971774459 0.0700000003
      vertex 0.5621864200 0.0971774459 0.1000000015
    endloop
  endfacet
  facet normal 0.1763401516 -0.9843292899 0.0000000000
    outer loop
      vertex 0.5434687138 0.0938242152 0.0299999993
      vertex 0.5621864200 0.0971774459 0.0700000003
      vertex 0.5434687138 0.0938242152 0.0700000003
    endloop
  endfacet
  facet normal 0.1763401516 -0.9843292899 0.0000000000
    outer loop
      vertex 0.5434687138 0.0938242152 0.0299999993
      vertex 0.5621864200 0.0971774459 0.0299999993
      vertex 0.5621864200 0.0971774459 0.0700000003
    endloop
  endfacet
  facet normal 0.1763401516 -0.9843292899 0.0000000000
    outer loop
      vertex 0.5621864200 0.0971774459 0.0299999993
      vertex 0.5434687138 0.0938242152 0.0299999993
      vertex 0.5621864200 0.0971774459 0.0000000000
    endloop
  endfacet
  facet normal 0.1763401516 -0.9843292899 0.0000000000
    outer loop
      vertex 0.5434687138 0.0938242152 0.0299999993
      vertex 0.5434687138 0.0938242152 0.0000000000
      vertex 0.5621864200 0.0971774459 0.0000000000
    endloop
  endfacet
  facet normal 0.2329852331 -0.9724802729 0.0000000000
    outer loop
      vertex 0.5249760151 0.0893937647 0.1000000015
      vertex 0.5249760151 0.0893937647 0.0700000003
      vertex 0.5434687138 0.0938242152 0.1000000015
    endloop
  endfacet
  facet normal 0.2329852331 -0.9724802729 0.0000000000
    outer loop
      vertex 0.5249760151 0.0893937647 0.0700000003
      vertex 0.5434687138 0.0938242152 0.0700000003
      vertex 0.5434687138 0.0938242152 0.1000000015
    endloop
  endfacet
  facet normal 0.2329852331 -0.9724802729 0.0000000000
    outer loop
      vertex 0.5249760151 0.0893937647 0.0299999993
      vertex 0.5434687138 0.0938242152 0.0700000003
      vertex 0.5249760151 0.0893937647 0.0700000003
    endloop
  endfacet
  facet normal 0.2329852331 -0.9724802729 0.0000000000
    outer loop
      vertex 0.5249760151 0.0893937647 0.0299999993
      vertex 0.5434687138 0.0938242152 0.0299999993
      vertex 0.5434687138 0.0938242152 0.0700000003
    endloop
  endfacet
  facet normal 0.2827475214 -0.9591943699 0.0000000000
    outer loop
      vertex 0.5059121251 0.0837741867 0.1000000015
      vertex 0.5059121251 0.0837741867 0.0700000003
      vertex 0.5249760151 0.0893937647 0.1000000015
    endloop
  endfacet
  facet normal 0.2827475214 -0.9591943699 0.0000000000
    outer loop
      vertex 0.5059121251 0.0837741867 0.0700000003
      vertex 0.5249760151 0.0893937647 0.0700000003
      vertex 0.5249760151 0.0893937647 0.1000000015
    endloop
  endfacet
  facet normal 0.2827475214 -0.9591943699 0.0000000000
    outer loop
      vertex 0.5059121251 0.0837741867 0.0299999993
      vertex 0.5249760151 0.0893937647 0.0700000003
      vertex 0.5059121251 0.0837741867 0.0700000003
    endloop
  endfacet
  facet normal 0.2827475214 -0.9591943699 0.0000000000
    outer loop
      vertex 0.5059121251 0.0837741867 0.0299999993
      vertex 0.5249760151 0.0893937647 0.0299999993
      vertex 0.5249760151 0.0893937647 0.0700000003
    endloop
  endfacet
  facet normal 0.2329852331 -0.9724802729 0.0000000000
    outer loop
      vertex 0.5434687138 0.0938242152 0.0299999993
      vertex 0.5249760151 0.0893937647 0.0299999993
      vertex 0.5434687138 0.0938242152 0.0000000000
    endloop
  endfacet
  facet normal 0.2329852331 -0.9724802729 0.0000000000
    outer loop
      vertex 0.5249760151 0.0893937647 0.0299999993
      vertex 0.5249760151 0.0893937647 0.0000000000
      vertex 0.5434687138 0.0938242152 0.0000000000
    endloop
  endfacet
  facet normal 0.2827475214 -0.9591943699 0.0000000000
    outer loop
      vertex 0.5249760151 0.0893937647 0.0299999993
      vertex 0.5059121251 0.0837741867 0.0299999993
      vertex 0.5249760151 0.0893937647 0.0000000000
    endloop
  endfacet
  facet normal 0.2827475214 -0.9591943699 0.0000000000
    outer loop
      vertex 0.5059121251 0.0837741867 0.0299999993
      vertex 0.5059121251 0.0837741867 0.0000000000
      vertex 0.5249760151 0.0893937647 0.0000000000
    endloop
  endfacet
  facet normal 0.3228699793 -0.9464433298 0.0000000000
    outer loop
      vertex 0.4871092439 0.0773597658 0.1000000015
      vertex 0.4871092439 0.0773597658 0.0700000003
      vertex 0.5059121251 0.0837741867 0.1000000015
    endloop
  endfacet
  facet normal 0.3228699793 -0.9464433298 0.0000000000
    outer loop
      vertex 0.4871092439 0.0773597658 0.0700000003
      vertex 0.5059121251 0.0837741867 0.0700000003
      vertex 0.5059121251 0.0837741867 0.1000000015
    endloop
  endfacet
  facet normal 0.3228699793 -0.9464433298 0.0000000000
    outer loop
      vertex 0.4871092439 0.0773597658 0.0299999993
      vertex 0.5059121251 0.0837741867 0.0700000003
      vertex 0.4871092439 0.0773597658 0.0700000003
    endloop
  endfacet
  facet normal 0.3228699793 -0.9464433298 0.0000000000
    outer loop
      vertex 0.4871092439 0.0773597658 0.0299999993
      vertex 0.5059121251 0.0837741867 0.0299999993
      vertex 0.5059121251 0.0837741867 0.0700000003
    endloop
  endfacet
  facet normal 0.3228699793 -0.9464433298 0.0000000000
    outer loop
      vertex 0.5059121251 0.0837741867 0.0299999993
      vertex 0.4871092439 0.0773597658 0.0299999993
      vertex 0.5059121251 0.0837741867 0.0000000000
    endloop
  endfacet
  facet normal 0.3228699793 -0.9464433298 0.0000000000
    outer loop
      vertex 0.4871092439 0.0773597658 0.0299999993
      vertex 0.4871092439 0.0773597658 0.0000000000
      vertex 0.5059121251 0.0837741867 0.0000000000
    endloop
  endfacet
  facet normal 0.3605415942 -0.9327431366 0.0000000000
    outer loop
      vertex 0.4500174224 0.0630223304 0.1000000015
      vertex 0.4500174224 0.0630223304 0.0700000003
      vertex 0.4871092439 0.0773597658 0.1000000015
    endloop
  endfacet
  facet normal 0.3605415942 -0.9327431366 0.0000000000
    outer loop
      vertex 0.4500174224 0.0630223304 0.0700000003
      vertex 0.4871092439 0.0773597658 0.0700000003
      vertex 0.4871092439 0.0773597658 0.1000000015
    endloop
  endfacet
  facet normal 0.3605415942 -0.9327431366 0.0000000000
    outer loop
      vertex 0.4500174224 0.0630223304 0.0299999993
      vertex 0.4871092439 0.0773597658 0.0700000003
      vertex 0.4500174224 0.0630223304 0.0700000003
    endloop
  endfacet
  facet normal 0.3605415942 -0.9327431366 0.0000000000
    outer loop
      vertex 0.4500174224 0.0630223304 0.0299999993
      vertex 0.4871092439 0.0773597658 0.0299999993
      vertex 0.4871092439 0.0773597658 0.0700000003
    endloop
  endfacet
  facet normal 0.3762939296 -0.9265003392 0.0000000000
    outer loop
      vertex 0.4126451313 0.0478437431 0.1000000015
      vertex 0.4126451313 0.0478437431 0.0700000003
      vertex 0.4500174224 0.0630223304 0.1000000015
    endloop
  endfacet
  facet normal 0.3762939296 -0.9265003392 0.0000000000
    outer loop
      vertex 0.4126451313 0.0478437431 0.0700000003
      vertex 0.4500174224 0.0630223304 0.0700000003
      vertex 0.4500174224 0.0630223304 0.1000000015
    endloop
  endfacet
  facet normal 0.3762939296 -0.9265003392 0.0000000000
    outer loop
      vertex 0.4126451313 0.0478437431 0.0299999993
      vertex 0.4500174224 0.0630223304 0.0700000003
      vertex 0.4126451313 0.0478437431 0.0700000003
    endloop
  endfacet
  facet normal 0.3762939296 -0.9265003392 0.0000000000
    outer loop
      vertex 0.4126451313 0.0478437431 0.0299999993
      vertex 0.4500174224 0.0630223304 0.0299999993
      vertex 0.4500174224 0.0630223304 0.0700000003
    endloop
  endfacet
  facet normal 0.3605415942 -0.9327431366 0.0000000000
    outer loop
      vertex 0.4871092439 0.0773597658 0.0299999993
      vertex 0.4500174224 0.0630223304 0.0299999993
      vertex 0.4871092439 0.0773597658 0.0000000000
    endloop
  endfacet
  facet normal 0.3605415942 -0.9327431366 0.0000000000
    outer loop
      vertex 0.4500174224 0.0630223304 0.0299999993
      vertex 0.4500174224 0.0630223304 0.0000000000
      vertex 0.4871092439 0.0773597658 0.0000000000
    endloop
  endfacet
  facet normal 0.3762939296 -0.9265003392 0.0000000000
    outer loop
      vertex 0.4500174224 0.0630223304 0.0299999993
      vertex 0.4126451313 0.0478437431 0.0299999993
      vertex 0.4500174224 0.0630223304 0.0000000000
    endloop
  endfacet
  facet normal 0.3762939296 -0.9265003392 0.0000000000
    outer loop
      vertex 0.4126451313 0.0478437431 0.0299999993
      vertex 0.4126451313 0.0478437431 0.0000000000
      vertex 0.4500174224 0.0630223304 0.0000000000
    endloop
  endfacet
  facet normal 0.3575767425 -0.9338837579 0.0000000000
    outer loop
      vertex 0.3749887943 0.0334254280 0.1000000015
      vertex 0.3749887943 0.0334254280 0.0700000003
      vertex 0.4126451313 0.0478437431 0.1000000015
    endloop
  endfacet
  facet normal 0.3575767425 -0.9338837579 0.0000000000
    outer loop
      vertex 0.3749887943 0.0334254280 0.0700000003
      vertex 0.4126451313 0.0478437431 0.0700000003
      vertex 0.4126451313 0.0478437431 0.1000000015
    endloop
  endfacet
  facet normal 0.3575767425 -0.9338837579 0.0000000000
    outer loop
      vertex 0.3749887943 0.0334254280 0.0299999993
      vertex 0.4126451313 0.0478437431 0.0700000003
      vertex 0.3749887943 0.0334254280 0.0700000003
    endloop
  endfacet
  facet normal 0.3575767425 -0.9338837579 0.0000000000
    outer loop
      vertex 0.3749887943 0.0334254280 0.0299999993
      vertex 0.4126451313 0.0478437431 0.0299999993
      vertex 0.4126451313 0.0478437431 0.0700000003
    endloop
  endfacet
  facet normal 0.3575767425 -0.9338837579 0.0000000000
    outer loop
      vertex 0.4126451313 0.0478437431 0.0299999993
      vertex 0.3749887943 0.0334254280 0.0299999993
      vertex 0.4126451313 0.0478437431 0.0000000000
    endloop
  endfacet
  facet normal 0.3575767425 -0.9338837579 0.0000000000
    outer loop
      vertex 0.3749887943 0.0334254280 0.0299999993
      vertex 0.3749887943 0.0334254280 0.0000000000
      vertex 0.4126451313 0.0478437431 0.0000000000
    endloop
  endfacet
  facet normal 0.3237679410 -0.9461365231 0.0000000000
    outer loop
      vertex 0.3565170765 0.0271044057 0.1000000015
      vertex 0.3565170765 0.0271044057 0.0700000003
      vertex 0.3749887943 0.0334254280 0.1000000015
    endloop
  endfacet
  facet normal 0.3237679410 -0.9461365231 0.0000000000
    outer loop
      vertex 0.3565170765 0.0271044057 0.0700000003
      vertex 0.3749887943 0.0334254280 0.0700000003
      vertex 0.3749887943 0.0334254280 0.1000000015
    endloop
  endfacet
  facet normal 0.3237679410 -0.9461365231 0.0000000000
    outer loop
      vertex 0.3565170765 0.0271044057 0.0299999993
      vertex 0.3749887943 0.0334254280 0.0700000003
      vertex 0.3565170765 0.0271044057 0.0700000003
    endloop
  endfacet
  facet normal 0.3237679410 -0.9461365231 0.0000000000
    outer loop
      vertex 0.3565170765 0.0271044057 0.0299999993
      vertex 0.3749887943 0.0334254280 0.0299999993
      vertex 0.3749887943 0.0334254280 0.0700000003
    endloop
  endfacet
  facet normal 0.2944067024 -0.9556802256 0.0000000000
    outer loop
      vertex 0.3378593922 0.0213567223 0.1000000015
      vertex 0.3378593922 0.0213567223 0.0700000003
      vertex 0.3565170765 0.0271044057 0.1000000015
    endloop
  endfacet
  facet normal 0.2944067024 -0.9556802256 0.0000000000
    outer loop
      vertex 0.3378593922 0.0213567223 0.0700000003
      vertex 0.3565170765 0.0271044057 0.0700000003
      vertex 0.3565170765 0.0271044057 0.1000000015
    endloop
  endfacet
  facet normal 0.2944067024 -0.9556802256 0.0000000000
    outer loop
      vertex 0.3378593922 0.0213567223 0.0299999993
      vertex 0.3565170765 0.0271044057 0.0700000003
      vertex 0.3378593922 0.0213567223 0.0700000003
    endloop
  endfacet
  facet normal 0.2944067024 -0.9556802256 0.0000000000
    outer loop
      vertex 0.3378593922 0.0213567223 0.0299999993
      vertex 0.3565170765 0.0271044057 0.0299999993
      vertex 0.3565170765 0.0271044057 0.0700000003
    endloop
  endfacet
  facet normal 0.3237679410 -0.9461365231 0.0000000000
    outer loop
      vertex 0.3749887943 0.0334254280 0.0299999993
      vertex 0.3565170765 0.0271044057 0.0299999993
      vertex 0.3749887943 0.0334254280 0.0000000000
    endloop
  endfacet
  facet normal 0.3237679410 -0.9461365231 0.0000000000
    outer loop
      vertex 0.3565170765 0.0271044057 0.0299999993
      vertex 0.3565170765 0.0271044057 0.0000000000
      vertex 0.3749887943 0.0334254280 0.0000000000
    endloop
  endfacet
  facet normal 0.2944067024 -0.9556802256 0.0000000000
    outer loop
      vertex 0.3565170765 0.0271044057 0.0299999993
      vertex 0.3378593922 0.0213567223 0.0299999993
      vertex 0.3565170765 0.0271044057 0.0000000000
    endloop
  endfacet
  facet normal 0.2944067024 -0.9556802256 0.0000000000
    outer loop
      vertex 0.3378593922 0.0213567223 0.0299999993
      vertex 0.3378593922 0.0213567223 0.0000000000
      vertex 0.3565170765 0.0271044057 0.0000000000
    endloop
  endfacet
  facet normal 0.2608227195 -0.9653867148 0.0000000000
    outer loop
      vertex 0.3190197945 0.0162667464 0.1000000015
      vertex 0.3190197945 0.0162667464 0.0700000003
      vertex 0.3378593922 0.0213567223 0.1000000015
    endloop
  endfacet
  facet normal 0.2608227195 -0.9653867148 0.0000000000
    outer loop
      vertex 0.3190197945 0.0162667464 0.0700000003
      vertex 0.3378593922 0.0213567223 0.0700000003
      vertex 0.3378593922 0.0213567223 0.1000000015
    endloop
  endfacet
  facet normal 0.2608227195 -0.9653867148 0.0000000000
    outer loop
      vertex 0.3190197945 0.0162667464 0.0299999993
      vertex 0.3378593922 0.0213567223 0.0700000003
      vertex 0.3190197945 0.0162667464 0.0700000003
    endloop
  endfacet
  facet normal 0.2608227195 -0.9653867148 0.0000000000
    outer loop
      vertex 0.3190197945 0.0162667464 0.0299999993
      vertex 0.3378593922 0.0213567223 0.0299999993
      vertex 0.3378593922 0.0213567223 0.0700000003
    endloop
  endfacet
  facet normal 0.2228765371 -0.9748466798 0.0000000000
    outer loop
      vertex 0.3000023663 0.0119188437 0.1000000015
      vertex 0.3000023663 0.0119188437 0.0700000003
      vertex 0.3190197945 0.0162667464 0.1000000015
    endloop
  endfacet
  facet normal 0.2228765371 -0.9748466798 0.0000000000
    outer loop
      vertex 0.3000023663 0.0119188437 0.0700000003
      vertex 0.3190197945 0.0162667464 0.0700000003
      vertex 0.3190197945 0.0162667464 0.1000000015
    endloop
  endfacet
  facet normal 0.2228765371 -0.9748466798 0.0000000000
    outer loop
      vertex 0.3000023663 0.0119188437 0.0299999993
      vertex 0.3190197945 0.0162667464 0.0700000003
      vertex 0.3000023663 0.0119188437 0.0700000003
    endloop
  endfacet
  facet normal 0.2228765371 -0.9748466798 0.0000000000
    outer loop
      vertex 0.3000023663 0.0119188437 0.0299999993
      vertex 0.3190197945 0.0162667464 0.0299999993
      vertex 0.3190197945 0.0162667464 0.0700000003
    endloop
  endfacet
  facet normal 0.2608227195 -0.9653867148 0.0000000000
    outer loop
      vertex 0.3378593922 0.0213567223 0.0299999993
      vertex 0.3190197945 0.0162667464 0.0299999993
      vertex 0.3378593922 0.0213567223 0.0000000000
    endloop
  endfacet
  facet normal 0.2608227195 -0.9653867148 0.0000000000
    outer loop
      vertex 0.3190197945 0.0162667464 0.0299999993
      vertex 0.3190197945 0.0162667464 0.0000000000
      vertex 0.3378593922 0.0213567223 0.0000000000
    endloop
  endfacet
  facet normal 0.2228765371 -0.9748466798 0.0000000000
    outer loop
      vertex 0.3190197945 0.0162667464 0.0299999993
      vertex 0.3000023663 0.0119188437 0.0299999993
      vertex 0.3190197945 0.0162667464 0.0000000000
    endloop
  endfacet
  facet normal 0.2228765371 -0.9748466798 0.0000000000
    outer loop
      vertex 0.3000023663 0.0119188437 0.0299999993
      vertex 0.3000023663 0.0119188437 0.0000000000
      vertex 0.3190197945 0.0162667464 0.0000000000
    endloop
  endfacet
  facet normal 0.1824220972 -0.9832203102 0.0000000000
    outer loop
      vertex 0.2814003527 0.0084675131 0.1000000015
      vertex 0.2814003527 0.0084675131 0.0700000003
      vertex 0.3000023663 0.0119188437 0.1000000015
    endloop
  endfacet
  facet normal 0.1824220972 -0.9832203102 0.0000000000
    outer loop
      vertex 0.2814003527 0.0084675131 0.0700000003
      vertex 0.3000023663 0.0119188437 0.0700000003
      vertex 0.3000023663 0.0119188437 0.1000000015
    endloop
  endfacet
  facet normal 0.1824220972 -0.9832203102 0.0000000000
    outer loop
      vertex 0.2814003527 0.0084675131 0.0299999993
      vertex 0.3000023663 0.0119188437 0.0700000003
      vertex 0.2814003527 0.0084675131 0.0700000003
    endloop
  endfacet
  facet normal 0.1824220972 -0.9832203102 0.0000000000
    outer loop
      vertex 0.2814003527 0.0084675131 0.0299999993
      vertex 0.3000023663 0.0119188437 0.0299999993
      vertex 0.3000023663 0.0119188437 0.0700000003
    endloop
  endfacet
  facet normal 0.1824220972 -0.9832203102 0.0000000000
    outer loop
      vertex 0.3000023663 0.0119188437 0.0299999993
      vertex 0.2814003527 0.0084675131 0.0299999993
      vertex 0.3000023663 0.0119188437 0.0000000000
    endloop
  endfacet
  facet normal 0.1824220972 -0.9832203102 0.0000000000
    outer loop
      vertex 0.2814003527 0.0084675131 0.0299999993
      vertex 0.2814003527 0.0084675131 0.0000000000
      vertex 0.3000023663 0.0119188437 0.0000000000
    endloop
  endfacet
  facet normal 0.1446891330 -0.9894771623 0.0000000000
    outer loop
      vertex 0.2626711428 0.0057287808 0.1000000015
      vertex 0.2626711428 0.0057287808 0.0700000003
      vertex 0.2814003527 0.0084675131 0.1000000015
    endloop
  endfacet
  facet normal 0.1446891330 -0.9894771623 0.0000000000
    outer loop
      vertex 0.2626711428 0.0057287808 0.0700000003
      vertex 0.2814003527 0.0084675131 0.0700000003
      vertex 0.2814003527 0.0084675131 0.1000000015
    endloop
  endfacet
  facet normal 0.1446891330 -0.9894771623 0.0000000000
    outer loop
      vertex 0.2626711428 0.0057287808 0.0299999993
      vertex 0.2814003527 0.0084675131 0.0700000003
      vertex 0.2626711428 0.0057287808 0.0700000003
    endloop
  endfacet
  facet normal 0.1446891330 -0.9894771623 0.0000000000
    outer loop
      vertex 0.2626711428 0.0057287808 0.0299999993
      vertex 0.2814003527 0.0084675131 0.0299999993
      vertex 0.2814003527 0.0084675131 0.0700000003
    endloop
  endfacet
  facet normal 0.1104076421 -0.9938863882 0.0000000000
    outer loop
      vertex 0.2438509613 0.0036381073 0.1000000015
      vertex 0.2438509613 0.0036381073 0.0700000003
      vertex 0.2626711428 0.0057287808 0.1000000015
    endloop
  endfacet
  facet normal 0.1104076421 -0.9938863882 0.0000000000
    outer loop
      vertex 0.2438509613 0.0036381073 0.0700000003
      vertex 0.2626711428 0.0057287808 0.0700000003
      vertex 0.2626711428 0.0057287808 0.1000000015
    endloop
  endfacet
  facet normal 0.1104076421 -0.9938863882 0.0000000000
    outer loop
      vertex 0.2438509613 0.0036381073 0.0299999993
      vertex 0.2626711428 0.0057287808 0.0700000003
      vertex 0.2438509613 0.0036381073 0.0700000003
    endloop
  endfacet
  facet normal 0.1104076421 -0.9938863882 0.0000000000
    outer loop
      vertex 0.2438509613 0.0036381073 0.0299999993
      vertex 0.2626711428 0.0057287808 0.0299999993
      vertex 0.2626711428 0.0057287808 0.0700000003
    endloop
  endfacet
  facet normal 0.1446891330 -0.9894771623 0.0000000000
    outer loop
      vertex 0.2814003527 0.0084675131 0.0299999993
      vertex 0.2626711428 0.0057287808 0.0299999993
      vertex 0.2814003527 0.0084675131 0.0000000000
    endloop
  endfacet
  facet normal 0.1446891330 -0.9894771623 0.0000000000
    outer loop
      vertex 0.2626711428 0.0057287808 0.0299999993
      vertex 0.2626711428 0.0057287808 0.0000000000
      vertex 0.2814003527 0.0084675131 0.0000000000
    endloop
  endfacet
  facet normal 0.1104076421 -0.9938863882 0.0000000000
    outer loop
      vertex 0.2626711428 0.0057287808 0.0299999993
      vertex 0.2438509613 0.0036381073 0.0299999993
      vertex 0.2626711428 0.0057287808 0.0000000000
    endloop
  endfacet
  facet normal 0.1104076421 -0.9938863882 0.0000000000
    outer loop
      vertex 0.2438509613 0.0036381073 0.0299999993
      vertex 0.2438509613 0.0036381073 0.0000000000
      vertex 0.2626711428 0.0057287808 0.0000000000
    endloop
  endfacet
  facet normal 0.0795961862 -0.9968271902 0.0000000000
    outer loop
      vertex 0.2249760479 0.0021309543 0.1000000015
      vertex 0.2249760479 0.0021309543 0.0700000003
      vertex 0.2438509613 0.0036381073 0.1000000015
    endloop
  endfacet
  facet normal 0.0795961862 -0.9968271902 0.0000000000
    outer loop
      vertex 0.2249760479 0.0021309543 0.0700000003
      vertex 0.2438509613 0.0036381073 0.0700000003
      vertex 0.2438509613 0.0036381073 0.1000000015
    endloop
  endfacet
  facet normal 0.0795961862 -0.9968271902 0.0000000000
    outer loop
      vertex 0.2249760479 0.0021309543 0.0299999993
      vertex 0.2438509613 0.0036381073 0.0700000003
      vertex 0.2249760479 0.0021309543 0.0700000003
    endloop
  endfacet
  facet normal 0.0795961862 -0.9968271902 0.0000000000
    outer loop
      vertex 0.2249760479 0.0021309543 0.0299999993
      vertex 0.2438509613 0.0036381073 0.0299999993
      vertex 0.2438509613 0.0036381073 0.0700000003
    endloop
  endfacet
  facet normal 0.0422456727 -0.9991072531 0.0000000000
    outer loop
      vertex 0.1875024438 0.0005464421 0.1000000015
      vertex 0.1875024438 0.0005464421 0.0700000003
      vertex 0.2249760479 0.0021309543 0.1000000015
    endloop
  endfacet
  facet normal 0.0422456727 -0.9991072531 0.0000000000
    outer loop
      vertex 0.1875024438 0.0005464421 0.0700000003
      vertex 0.2249760479 0.0021309543 0.0700000003
      vertex 0.2249760479 0.0021309543 0.1000000015
    endloop
  endfacet
  facet normal 0.0422456727 -0.9991072531 0.0000000000
    outer loop
      vertex 0.1875024438 0.0005464421 0.0299999993
      vertex 0.2249760479 0.0021309543 0.0700000003
      vertex 0.1875024438 0.0005464421 0.0700000003
    endloop
  endfacet
  facet normal 0.0422456727 -0.9991072531 0.0000000000
    outer loop
      vertex 0.1875024438 0.0005464421 0.0299999993
      vertex 0.2249760479 0.0021309543 0.0299999993
      vertex 0.2249760479 0.0021309543 0.0700000003
    endloop
  endfacet
  facet normal 0.0795961862 -0.9968271902 0.0000000000
    outer loop
      vertex 0.2438509613 0.0036381073 0.0299999993
      vertex 0.2249760479 0.0021309543 0.0299999993
      vertex 0.2438509613 0.0036381073 0.0000000000
    endloop
  endfacet
  facet normal 0.0795961862 -0.9968271902 0.0000000000
    outer loop
      vertex 0.2249760479 0.0021309543 0.0299999993
      vertex 0.2249760479 0.0021309543 0.0000000000
      vertex 0.2438509613 0.0036381073 0.0000000000
    endloop
  endfacet
  facet normal 0.0422456727 -0.9991072531 0.0000000000
    outer loop
      vertex 0.2249760479 0.0021309543 0.0299999993
      vertex 0.1875024438 0.0005464421 0.0299999993
      vertex 0.2249760479 0.0021309543 0.0000000000
    endloop
  endfacet
  facet normal 0.0422456727 -0.9991072531 0.0000000000
    outer loop
      vertex 0.1875024438 0.0005464421 0.0299999993
      vertex 0.1875024438 0.0005464421 0.0000000000
      vertex 0.2249760479 0.0021309543 0.0000000000
    endloop
  endfacet
  facet normal 0.0122426119 -0.9999250564 0.0000000000
    outer loop
      vertex 0.1499921381 0.0000871836 0.1000000015
      vertex 0.1499921381 0.0000871836 0.0700000003
      vertex 0.1875024438 0.0005464421 0.1000000015
    endloop
  endfacet
  facet normal 0.0122426119 -0.9999250564 0.0000000000
    outer loop
      vertex 0.1499921381 0.0000871836 0.0700000003
      vertex 0.1875024438 0.0005464421 0.0700000003
      vertex 0.1875024438 0.0005464421 0.1000000015
    endloop
  endfacet
  facet normal 0.0122426119 -0.9999250564 0.0000000000
    outer loop
      vertex 0.1499921381 0.0000871836 0.0299999993
      vertex 0.1875024438 0.0005464421 0.0700000003
      vertex 0.1499921381 0.0000871836 0.0700000003
    endloop
  endfacet
  facet normal 0.0122426119 -0.9999250564 0.0000000000
    outer loop
      vertex 0.1499921381 0.0000871836 0.0299999993
      vertex 0.1875024438 0.0005464421 0.0299999993
      vertex 0.1875024438 0.0005464421 0.0700000003
    endloop
  endfacet
  facet normal 0.0122426119 -0.9999250564 0.0000000000
    outer loop
      vertex 0.1875024438 0.0005464421 0.0299999993
      vertex 0.1499921381 0.0000871836 0.0299999993
      vertex 0.1875024438 0.0005464421 0.0000000000
    endloop
  endfacet
  facet normal 0.0122426119 -0.9999250564 0.0000000000
    outer loop
      vertex 0.1499921381 0.0000871836 0.0299999993
      vertex 0.1499921381 0.0000871836 0.0000000000
      vertex 0.1875024438 0.0005464421 0.0000000000
    endloop
  endfacet
  facet normal 0.0013511695 -0.9999990872 0.0000000000
    outer loop
      vertex 0.0749956593 -0.0000141495 0.1000000015
      vertex 0.0749956593 -0.0000141495 0.0700000003
      vertex 0.1499921381 0.0000871836 0.1000000015
    endloop
  endfacet
  facet normal 0.0013511695 -0.9999990872 0.0000000000
    outer loop
      vertex 0.0749956593 -0.0000141495 0.0700000003
      vertex 0.1499921381 0.0000871836 0.0700000003
      vertex 0.1499921381 0.0000871836 0.1000000015
    endloop
  endfacet
  facet normal 0.0013511695 -0.9999990872 0.0000000000
    outer loop
      vertex 0.0749956593 -0.0000141495 0.0299999993
      vertex 0.1499921381 0.0000871836 0.0700000003
      vertex 0.0749956593 -0.0000141495 0.0700000003
    endloop
  endfacet
  facet normal 0.0013511695 -0.9999990872 0.0000000000
    outer loop
      vertex 0.0749956593 -0.0000141495 0.0299999993
      vertex 0.1499921381 0.0000871836 0.0299999993
      vertex 0.1499921381 0.0000871836 0.0700000003
    endloop
  endfacet
  facet normal -0.0001886705 -0.9999999822 0.0000000000
    outer loop
      vertex 0.0000000000 0.0000000000 0.0700000003
      vertex 0.0749956593 -0.0000141495 0.0700000003
      vertex 0.0000000000 0.0000000000 0.1000000000
    endloop
  endfacet
  facet normal -0.0001886705 -0.9999999822 0.0000000000
    outer loop
      vertex 0.0749956593 -0.0000141495 0.0700000003
      vertex 0.0749956593 -0.0000141495 0.1000000015
      vertex 0.0000000000 0.0000000000 0.1000000000
    endloop
  endfacet
  facet normal -0.0001886705 -0.9999999822 -0.0000000000
    outer loop
      vertex 0.0749956593 -0.0000141495 0.0700000003
      vertex 0.0000000000 0.0000000000 0.0299999993
      vertex 0.0749956593 -0.0000141495 0.0299999993
    endloop
  endfacet
  facet normal -0.0001886705 -0.9999999822 0.0000000000
    outer loop
      vertex 0.0749956593 -0.0000141495 0.0700000003
      vertex 0.0000000000 0.0000000000 0.0700000003
      vertex 0.0000000000 0.0000000000 0.0299999993
    endloop
  endfacet
  facet normal 0.0013511695 -0.9999990872 0.0000000000
    outer loop
      vertex 0.1499921381 0.0000871836 0.0299999993
      vertex 0.0749956593 -0.0000141495 0.0299999993
      vertex 0.1499921381 0.0000871836 0.0000000000
    endloop
  endfacet
  facet normal 0.0013511695 -0.9999990872 0.0000000000
    outer loop
      vertex 0.0749956593 -0.0000141495 0.0299999993
      vertex 0.0749956593 -0.0000141495 0.0000000000
      vertex 0.1499921381 0.0000871836 0.0000000000
    endloop
  endfacet
  facet normal -0.0001886705 -0.9999999822 -0.0000000000
    outer loop
      vertex 0.0749956593 -0.0000141495 0.0299999993
      vertex 0.0000000000 0.0000000000 0.0000000000
      vertex 0.0749956593 -0.0000141495 0.0000000000
    endloop
  endfacet
  facet normal -0.0001886705 -0.9999999822 0.0000000000
    outer loop
      vertex 0.0749956593 -0.0000141495 0.0299999993
      vertex 0.0000000000 0.0000000000 0.0299999993
      vertex 0.0000000000 0.0000000000 0.0000000000
    endloop
  endfacet
endsolid CRVS
