solid CRVS
  facet normal 0.0000000000 -1.0000000000 0.0000000000
    outer loop
      vertex 2.4600000381 0.0000000000 0.0700000003
      vertex 3.0000000000 0.0000000000 0.1000000000
      vertex 2.4600000381 0.0000000000 0.1000000015
    endloop
  endfacet
  facet normal 0.0000000000 -1.0000000000 0.0000000000
    outer loop
      vertex 2.4600000381 0.0000000000 0.0700000003
      vertex 3.0000000000 0.0000000000 0.0700000003
      vertex 3.0000000000 0.0000000000 0.1000000000
    endloop
  endfacet
  facet normal 0.0000000000 -1.0000000000 0.0000000000
    outer loop
      vertex 2.4600000381 0.0000000000 0.0299999993
      vertex 3.0000000000 0.0000000000 0.0700000003
      vertex 2.4600000381 0.0000000000 0.0700000003
    endloop
  endfacet
  facet normal 0.0000000000 -1.0000000000 0.0000000000
    outer loop
      vertex 2.4600000381 0.0000000000 0.0299999993
      vertex 3.0000000000 0.0000000000 0.0299999993
      vertex 3.0000000000 0.0000000000 0.0700000003
    endloop
  endfacet
  facet normal 0.0000000000 -1.0000000000 0.0000000000
    outer loop
      vertex 2.4600000381 0.0000000000 0.0000000000
      vertex 3.0000000000 0.0000000000 0.0299999993
      vertex 2.4600000381 0.0000000000 0.0299999993
    endloop
  endfacet
  facet normal 0.0000000000 -1.0000000000 0.0000000000
    outer loop
      vertex 2.4600000381 0.0000000000 0.0000000000
      vertex 3.0000000000 0.0000000000 0.0000000000
      vertex 3.0000000000 0.0000000000 0.0299999993
    endloop
  endfacet
  facet normal 0.0000000000 -1.0000000000 0.0000000000
    outer loop
      vertex 1.7400000095 0.0000000000 0.0700000003
      vertex 2.4600000381 0.0000000000 0.1000000015
      vertex 1.7400000095 0.0000000000 0.1000000015
    endloop
  endfacet
  facet normal 0.0000000000 -1.0000000000 0.0000000000
    outer loop
      vertex 1.7400000095 0.0000000000 0.0700000003
      vertex 2.4600000381 0.0000000000 0.0700000003
      vertex 2.4600000381 0.0000000000 0.1000000015
    endloop
  endfacet
  facet normal 0.0000000000 -1.0000000000 0.0000000000
    outer loop
      vertex 1.7400000095 0.0000000000 0.0299999993
      vertex 2.4600000381 0.0000000000 0.0700000003
      vertex 1.7400000095 0.0000000000 0.0700000003
    endloop
  endfacet
  facet normal 0.0000000000 -1.0000000000 0.0000000000
    outer loop
      vertex 1.7400000095 0.0000000000 0.0299999993
      vertex 2.4600000381 0.0000000000 0.0299999993
      vertex 2.4600000381 0.0000000000 0.0700000003
    endloop
  endfacet
  facet normal 0.0000000000 -1.0000000000 0.0000000000
    outer loop
      vertex 1.7400000095 0.0000000000 0.0000000000
      vertex 2.4600000381 0.0000000000 0.0299999993
      vertex 1.7400000095 0.0000000000 0.0299999993
    endloop
  endfacet
  facet normal 0.0000000000 -1.0000000000 0.0000000000
    outer loop
      vertex 1.7400000095 0.0000000000 0.0000000000
      vertex 2.4600000381 0.0000000000 0.0000000000
      vertex 2.4600000381 0.0000000000 0.0299999993
    endloop
  endfacet
  facet normal 0.0000000000 -1.0000000000 0.0000000000
    outer loop
      vertex 1.2000000477 0.0000000000 0.0700000003
      vertex 1.7400000095 0.0000000000 0.1000000015
      vertex 1.2000000000 0.0000000000 0.1000000000
    endloop
  endfacet
  facet normal 0.0000000000 -1.0000000000 0.0000000000
    outer loop
      vertex 1.2000000477 0.0000000000 0.0700000003
      vertex 1.7400000095 0.0000000000 0.0700000003
      vertex 1.7400000095 0.0000000000 0.1000000015
    endloop
  endfacet
  facet normal 0.0000000000 -1.0000000000 0.0000000000
    outer loop
      vertex 1.2000000477 0.0000000000 0.0299999993
      vertex 1.7400000095 0.0000000000 0.0700000003
      vertex 1.2000000477 0.0000000000 0.0700000003
    endloop
  endfacet
  facet normal 0.0000000000 -1.0000000000 0.0000000000
    outer loop
      vertex 1.2000000477 0.0000000000 0.0299999993
      vertex 1.7400000095 0.0000000000 0.0299999993
      vertex 1.7400000095 0.0000000000 0.0700000003
    endloop
  endfacet
  facet normal 0.0000000000 -1.0000000000 0.0000000007
    outer loop
      vertex 1.1999999285 -0.0000000000 0.0000000000
      vertex 1.7400000095 0.0000000000 0.0299999993
      vertex 1.2000000477 0.0000000000 0.0299999993
    endloop
  endfacet
  facet normal 0.0000000000 -1.0000000000 0.0000000000
    outer loop
      vertex 1.1999999285 -0.0000000000 0.0000000000
      vertex 1.7400000095 0.0000000000 0.0000000000
      vertex 1.7400000095 0.0000000000 0.0299999993
    endloop
  endfacet
  facet normal -0.0000684195 -0.9999999977 0.0000000000
    outer loop
      vertex 1.1240037680 0.0000051996 0.0700000003
      vertex 1.2000000000 0.0000000000 0.1000000000
      vertex 1.1240037680 0.0000051996 0.1000000015
    endloop
  endfacet
  facet normal -0.0000684194 -0.9999999977 -0.0000000001
    outer loop
      vertex 1.1240037680 0.0000051996 0.0700000003
      vertex 1.2000000477 0.0000000000 0.0700000003
      vertex 1.2000000000 0.0000000000 0.1000000000
    endloop
  endfacet
  facet normal -0.0000684194 -0.9999999977 0.0000000000
    outer loop
      vertex 1.1240037680 0.0000051996 0.0299999993
      vertex 1.2000000477 0.0000000000 0.0700000003
      vertex 1.1240037680 0.0000051996 0.0700000003
    endloop
  endfacet
  facet normal -0.0000684194 -0.9999999977 0.0000000000
    outer loop
      vertex 1.1240037680 0.0000051996 0.0299999993
      vertex 1.2000000477 0.0000000000 0.0299999993
      vertex 1.2000000477 0.0000000000 0.0700000003
    endloop
  endfacet
  facet normal -0.0000684194 -0.9999999977 0.0000000000
    outer loop
      vertex 1.1240037680 0.0000051996 0.0000000000
      vertex 1.2000000477 0.0000000000 0.0299999993
      vertex 1.1240037680 0.0000051996 0.0299999993
    endloop
  endfacet
  facet normal -0.0000684198 -0.9999999977 0.0000000009
    outer loop
      vertex 1.1240037680 0.0000051996 0.0000000000
      vertex 1.1999999285 -0.0000000000 0.0000000000
      vertex 1.2000000477 0.0000000000 0.0299999993
    endloop
  endfacet
  facet normal 0.0006027212 -0.9999998184 0.0000000000
    outer loop
      vertex 1.0865017176 -0.0000174037 0.0700000003
      vertex 1.1240037680 0.0000051996 0.1000000015
      vertex 1.0865017176 -0.0000174037 0.1000000015
    endloop
  endfacet
  facet normal 0.0006027212 -0.9999998184 0.0000000000
    outer loop
      vertex 1.0865017176 -0.0000174037 0.0700000003
      vertex 1.1240037680 0.0000051996 0.0700000003
      vertex 1.1240037680 0.0000051996 0.1000000015
    endloop
  endfacet
  facet normal 0.0006027212 -0.9999998184 0.0000000000
    outer loop
      vertex 1.0865017176 -0.0000174037 0.0299999993
      vertex 1.1240037680 0.0000051996 0.0700000003
      vertex 1.0865017176 -0.0000174037 0.0700000003
    endloop
  endfacet
  facet normal 0.0006027212 -0.9999998184 0.0000000000
    outer loop
      vertex 1.0865017176 -0.0000174037 0.0299999993
      vertex 1.1240037680 0.0000051996 0.0299999993
      vertex 1.1240037680 0.0000051996 0.0700000003
    endloop
  endfacet
  facet normal 0.0006027212 -0.9999998184 0.0000000000
    outer loop
      vertex 1.0865017176 -0.0000174037 0.0000000000
      vertex 1.1240037680 0.0000051996 0.0299999993
      vertex 1.0865017176 -0.0000174037 0.0299999993
    endloop
  endfacet
  facet normal 0.0006027212 -0.9999998184 0.0000000000
    outer loop
      vertex 1.0865017176 -0.0000174037 0.0000000000
      vertex 1.1240037680 0.0000051996 0.0000000000
      vertex 1.1240037680 0.0000051996 0.0299999993
    endloop
  endfacet
  facet normal -0.0049161768 -0.9999879155 0.0000000000
    outer loop
      vertex 1.0489963293 0.0001669817 0.0700000003
      vertex 1.0865017176 -0.0000174037 0.1000000015
      vertex 1.0489963293 0.0001669817 0.1000000015
    endloop
  endfacet
  facet normal -0.0049161768 -0.9999879155 0.0000000000
    outer loop
      vertex 1.0489963293 0.0001669817 0.0700000003
      vertex 1.0865017176 -0.0000174037 0.0700000003
      vertex 1.0865017176 -0.0000174037 0.1000000015
    endloop
  endfacet
  facet normal -0.0049161768 -0.9999879155 0.0000000000
    outer loop
      vertex 1.0489963293 0.0001669817 0.0299999993
      vertex 1.0865017176 -0.0000174037 0.0700000003
      vertex 1.0489963293 0.0001669817 0.0700000003
    endloop
  endfacet
  facet normal -0.0049161768 -0.9999879155 0.0000000000
    outer loop
      vertex 1.0489963293 0.0001669817 0.0299999993
      vertex 1.0865017176 -0.0000174037 0.0299999993
      vertex 1.0865017176 -0.0000174037 0.0700000003
    endloop
  endfacet
  facet normal -0.0049161768 -0.9999879155 0.0000000000
    outer loop
      vertex 1.0489963293 0.0001669817 0.0000000000
      vertex 1.0865017176 -0.0000174037 0.0299999993
      vertex 1.0489963293 0.0001669817 0.0299999993
    endloop
  endfacet
  facet normal -0.0049161768 -0.9999879155 0.0000000000
    outer loop
      vertex 1.0489963293 0.0001669817 0.0000000000
      vertex 1.0865017176 -0.0000174037 0.0000000000
      vertex 1.0865017176 -0.0000174037 0.0299999993
    endloop
  endfacet
  facet normal -0.0251929237 -0.9996826079 0.0000000000
    outer loop
      vertex 1.0114378929 0.0011134889 0.0700000003
      vertex 1.0489963293 0.0001669817 0.1000000015
      vertex 1.0114378929 0.0011134889 0.1000000015
    endloop
  endfacet
  facet normal -0.0251929237 -0.9996826079 0.0000000000
    outer loop
      vertex 1.0114378929 0.0011134889 0.0700000003
      vertex 1.0489963293 0.0001669817 0.0700000003
      vertex 1.0489963293 0.0001669817 0.1000000015
    endloop
  endfacet
  facet normal -0.0251929237 -0.9996826079 0.0000000000
    outer loop
      vertex 1.0114378929 0.0011134889 0.0299999993
      vertex 1.0489963293 0.0001669817 0.0700000003
      vertex 1.0114378929 0.0011134889 0.0700000003
    endloop
  endfacet
  facet normal -0.0251929237 -0.9996826079 0.0000000000
    outer loop
      vertex 1.0114378929 0.0011134889 0.0299999993
      vertex 1.0489963293 0.0001669817 0.0299999993
      vertex 1.0489963293 0.0001669817 0.0700000003
    endloop
  endfacet
  facet normal -0.0251929237 -0.9996826079 0.0000000000
    outer loop
      vertex 1.0114378929 0.0011134889 0.0000000000
      vertex 1.0489963293 0.0001669817 0.0299999993
      vertex 1.0114378929 0.0011134889 0.0299999993
    endloop
  endfacet
  facet normal -0.0251929237 -0.9996826079 0.0000000000
    outer loop
      vertex 1.0114378929 0.0011134889 0.0000000000
      vertex 1.0489963293 0.0001669817 0.0000000000
      vertex 1.0489963293 0.0001669817 0.0299999993
    endloop
  endfacet
  facet normal -0.0656618889 -0.9978419295 0.0000000000
    outer loop
      vertex 0.9927111864 0.0023457792 0.0700000003
      vertex 1.0114378929 0.0011134889 0.1000000015
      vertex 0.9927111864 0.0023457792 0.1000000015
    endloop
  endfacet
  facet normal -0.0656618889 -0.9978419295 0.0000000000
    outer loop
      vertex 0.9927111864 0.0023457792 0.0700000003
      vertex 1.0114378929 0.0011134889 0.0700000003
      vertex 1.0114378929 0.0011134889 0.1000000015
    endloop
  endfacet
  facet normal -0.0656618889 -0.9978419295 0.0000000000
    outer loop
      vertex 0.9927111864 0.0023457792 0.0299999993
      vertex 1.0114378929 0.0011134889 0.0700000003
      vertex 0.9927111864 0.0023457792 0.0700000003
    endloop
  endfacet
  facet normal -0.0656618889 -0.9978419295 0.0000000000
    outer loop
      vertex 0.9927111864 0.0023457792 0.0299999993
      vertex 1.0114378929 0.0011134889 0.0299999993
      vertex 1.0114378929 0.0011134889 0.0700000003
    endloop
  endfacet
  facet normal -0.0656618889 -0.9978419295 0.0000000000
    outer loop
      vertex 0.9927111864 0.0023457792 0.0000000000
      vertex 1.0114378929 0.0011134889 0.0299999993
      vertex 0.9927111864 0.0023457792 0.0299999993
    endloop
  endfacet
  facet normal -0.0656618889 -0.9978419295 0.0000000000
    outer loop
      vertex 0.9927111864 0.0023457792 0.0000000000
      vertex 1.0114378929 0.0011134889 0.0000000000
      vertex 1.0114378929 0.0011134889 0.0299999993
    endloop
  endfacet
  facet normal -0.1087219713 -0.9940721971 0.0000000000
    outer loop
      vertex 0.9740477204 0.0043870080 0.0700000003
      vertex 0.9927111864 0.0023457792 0.1000000015
      vertex 0.9740477204 0.0043870080 0.1000000015
    endloop
  endfacet
  facet normal -0.1087219713 -0.9940721971 0.0000000000
    outer loop
      vertex 0.9740477204 0.0043870080 0.0700000003
      vertex 0.9927111864 0.0023457792 0.0700000003
      vertex 0.9927111864 0.0023457792 0.1000000015
    endloop
  endfacet
  facet normal -0.1087219713 -0.9940721971 0.0000000000
    outer loop
      vertex 0.9740477204 0.0043870080 0.0299999993
      vertex 0.9927111864 0.0023457792 0.0700000003
      vertex 0.9740477204 0.0043870080 0.0700000003
    endloop
  endfacet
  facet normal -0.1087219713 -0.9940721971 0.0000000000
    outer loop
      vertex 0.9740477204 0.0043870080 0.0299999993
      vertex 0.9927111864 0.0023457792 0.0299999993
      vertex 0.9927111864 0.0023457792 0.0700000003
    endloop
  endfacet
  facet normal -0.1087219713 -0.9940721971 0.0000000000
    outer loop
      vertex 0.9740477204 0.0043870080 0.0000000000
      vertex 0.9927111864 0.0023457792 0.0299999993
      vertex 0.9740477204 0.0043870080 0.0299999993
    endloop
  endfacet
  facet normal -0.1087219713 -0.9940721971 0.0000000000
    outer loop
      vertex 0.9740477204 0.0043870080 0.0000000000
      vertex 0.9927111864 0.0023457792 0.0000000000
      vertex 0.9927111864 0.0023457792 0.0299999993
    endloop
  endfacet
  facet normal -0.1629676529 -0.9866314125 0.0000000000
    outer loop
      vertex 0.9548243284 0.0075622476 0.0700000003
      vertex 0.9740477204 0.0043870080 0.1000000015
      vertex 0.9548243284 0.0075622476 0.1000000015
    endloop
  endfacet
  facet normal -0.1629676529 -0.9866314125 0.0000000000
    outer loop
      vertex 0.9548243284 0.0075622476 0.0700000003
      vertex 0.9740477204 0.0043870080 0.0700000003
      vertex 0.9740477204 0.0043870080 0.1000000015
    endloop
  endfacet
  facet normal -0.1629676529 -0.9866314125 0.0000000000
    outer loop
      vertex 0.9548243284 0.0075622476 0.0299999993
      vertex 0.9740477204 0.0043870080 0.0700000003
      vertex 0.9548243284 0.0075622476 0.0700000003
    endloop
  endfacet
  facet normal -0.1629676529 -0.9866314125 0.0000000000
    outer loop
      vertex 0.9548243284 0.0075622476 0.0299999993
      vertex 0.9740477204 0.0043870080 0.0299999993
      vertex 0.9740477204 0.0043870080 0.0700000003
    endloop
  endfacet
  facet normal -0.1629676529 -0.9866314125 0.0000000000
    outer loop
      vertex 0.9548243284 0.0075622476 0.0000000000
      vertex 0.9740477204 0.0043870080 0.0299999993
      vertex 0.9548243284 0.0075622476 0.0299999993
    endloop
  endfacet
  facet normal -0.1629676529 -0.9866314125 0.0000000000
    outer loop
      vertex 0.9548243284 0.0075622476 0.0000000000
      vertex 0.9740477204 0.0043870080 0.0000000000
      vertex 0.9740477204 0.0043870080 0.0299999993
    endloop
  endfacet
  facet normal -0.2223784575 -0.9749604205 0.0000000000
    outer loop
      vertex 0.9358158708 0.0118978815 0.0700000003
      vertex 0.9548243284 0.0075622476 0.1000000015
      vertex 0.9358158708 0.0118978815 0.1000000015
    endloop
  endfacet
  facet normal -0.2223784575 -0.9749604205 0.0000000000
    outer loop
      vertex 0.9358158708 0.0118978815 0.0700000003
      vertex 0.9548243284 0.0075622476 0.0700000003
      vertex 0.9548243284 0.0075622476 0.1000000015
    endloop
  endfacet
  facet normal -0.2223784575 -0.9749604205 0.0000000000
    outer loop
      vertex 0.9358158708 0.0118978815 0.0299999993
      vertex 0.9548243284 0.0075622476 0.0700000003
      vertex 0.9358158708 0.0118978815 0.0700000003
    endloop
  endfacet
  facet normal -0.2223784575 -0.9749604205 0.0000000000
    outer loop
      vertex 0.9358158708 0.0118978815 0.0299999993
      vertex 0.9548243284 0.0075622476 0.0299999993
      vertex 0.9548243284 0.0075622476 0.0700000003
    endloop
  endfacet
  facet normal -0.2223784575 -0.9749604205 0.0000000000
    outer loop
      vertex 0.9358158708 0.0118978815 0.0000000000
      vertex 0.9548243284 0.0075622476 0.0299999993
      vertex 0.9358158708 0.0118978815 0.0299999993
    endloop
  endfacet
  facet normal -0.2223784575 -0.9749604205 0.0000000000
    outer loop
      vertex 0.9358158708 0.0118978815 0.0000000000
      vertex 0.9548243284 0.0075622476 0.0000000000
      vertex 0.9548243284 0.0075622476 0.0299999993
    endloop
  endfacet
  facet normal -0.2847250755 -0.9586092172 0.0000000000
    outer loop
      vertex 0.9171468616 0.0174429305 0.0700000003
      vertex 0.9358158708 0.0118978815 0.1000000015
      vertex 0.9171468616 0.0174429305 0.1000000015
    endloop
  endfacet
  facet normal -0.2847250755 -0.9586092172 0.0000000000
    outer loop
      vertex 0.9171468616 0.0174429305 0.0700000003
      vertex 0.9358158708 0.0118978815 0.0700000003
      vertex 0.9358158708 0.0118978815 0.1000000015
    endloop
  endfacet
  facet normal -0.2847250755 -0.9586092172 0.0000000000
    outer loop
      vertex 0.9171468616 0.0174429305 0.0299999993
      vertex 0.9358158708 0.0118978815 0.0700000003
      vertex 0.9171468616 0.0174429305 0.0700000003
    endloop
  endfacet
  facet normal -0.2847250755 -0.9586092172 0.0000000000
    outer loop
      vertex 0.9171468616 0.0174429305 0.0299999993
      vertex 0.9358158708 0.0118978815 0.0299999993
      vertex 0.9358158708 0.0118978815 0.0700000003
    endloop
  endfacet
  facet normal -0.2847250755 -0.9586092172 0.0000000000
    outer loop
      vertex 0.9171468616 0.0174429305 0.0000000000
      vertex 0.9358158708 0.0118978815 0.0299999993
      vertex 0.9171468616 0.0174429305 0.0299999993
    endloop
  endfacet
  facet normal -0.2847250755 -0.9586092172 0.0000000000
    outer loop
      vertex 0.9171468616 0.0174429305 0.0000000000
      vertex 0.9358158708 0.0118978815 0.0000000000
      vertex 0.9358158708 0.0118978815 0.0299999993
    endloop
  endfacet
  facet normal -0.3500684529 -0.9367241207 0.0000000000
    outer loop
      vertex 0.8989418745 0.0242464188 0.0700000003
      vertex 0.9171468616 0.0174429305 0.1000000015
      vertex 0.8989418745 0.0242464188 0.1000000015
    endloop
  endfacet
  facet normal -0.3500684529 -0.9367241207 0.0000000000
    outer loop
      vertex 0.8989418745 0.0242464188 0.0700000003
      vertex 0.9171468616 0.0174429305 0.0700000003
      vertex 0.9171468616 0.0174429305 0.1000000015
    endloop
  endfacet
  facet normal -0.3500684529 -0.9367241207 0.0000000000
    outer loop
      vertex 0.8989418745 0.0242464188 0.0299999993
      vertex 0.9171468616 0.0174429305 0.0700000003
      vertex 0.8989418745 0.0242464188 0.0700000003
    endloop
  endfacet
  facet normal -0.3500684529 -0.9367241207 0.0000000000
    outer loop
      vertex 0.8989418745 0.0242464188 0.0299999993
      vertex 0.9171468616 0.0174429305 0.0299999993
      vertex 0.9171468616 0.0174429305 0.0700000003
    endloop
  endfacet
  facet normal -0.3500684529 -0.9367241207 0.0000000000
    outer loop
      vertex 0.8989418745 0.0242464188 0.0000000000
      vertex 0.9171468616 0.0174429305 0.0299999993
      vertex 0.8989418745 0.0242464188 0.0299999993
    endloop
  endfacet
  facet normal -0.3500684529 -0.9367241207 0.0000000000
    outer loop
      vertex 0.8989418745 0.0242464188 0.0000000000
      vertex 0.9171468616 0.0174429305 0.0000000000
      vertex 0.9171468616 0.0174429305 0.0299999993
    endloop
  endfacet
  facet normal -0.4194273504 -0.9077889059 0.0000000000
    outer loop
      vertex 0.8792989850 0.0333220586 0.0700000003
      vertex 0.8989418745 0.0242464188 0.1000000015
      vertex 0.8792989850 0.0333220586 0.1000000015
    endloop
  endfacet
  facet normal -0.4194273504 -0.9077889059 0.0000000000
    outer loop
      vertex 0.8792989850 0.0333220586 0.0700000003
      vertex 0.8989418745 0.0242464188 0.0700000003
      vertex 0.8989418745 0.0242464188 0.1000000015
    endloop
  endfacet
  facet normal -0.4194273504 -0.9077889059 0.0000000000
    outer loop
      vertex 0.8792989850 0.0333220586 0.0299999993
      vertex 0.8989418745 0.0242464188 0.0700000003
      vertex 0.8792989850 0.0333220586 0.0700000003
    endloop
  endfacet
  facet normal -0.4194273504 -0.9077889059 0.0000000000
    outer loop
      vertex 0.8792989850 0.0333220586 0.0299999993
      vertex 0.8989418745 0.0242464188 0.0299999993
      vertex 0.8989418745 0.0242464188 0.0700000003
    endloop
  endfacet
  facet normal -0.4194273504 -0.9077889059 0.0000000000
    outer loop
      vertex 0.8792989850 0.0333220586 0.0000000000
      vertex 0.8989418745 0.0242464188 0.0299999993
      vertex 0.8792989850 0.0333220586 0.0299999993
    endloop
  endfacet
  facet normal -0.4194273504 -0.9077889059 0.0000000000
    outer loop
      vertex 0.8792989850 0.0333220586 0.0000000000
      vertex 0.8989418745 0.0242464188 0.0000000000
      vertex 0.8989418745 0.0242464188 0.0299999993
    endloop
  endfacet
  facet normal -0.4817362009 -0.8763162858 0.0000000000
    outer loop
      vertex 0.8603150845 0.0437580533 0.0700000003
      vertex 0.8792989850 0.0333220586 0.1000000015
      vertex 0.8603150845 0.0437580533 0.1000000015
    endloop
  endfacet
  facet normal -0.4817362009 -0.8763162858 0.0000000000
    outer loop
      vertex 0.8603150845 0.0437580533 0.0700000003
      vertex 0.8792989850 0.0333220586 0.0700000003
      vertex 0.8792989850 0.0333220586 0.1000000015
    endloop
  endfacet
  facet normal -0.4817362009 -0.8763162858 0.0000000000
    outer loop
      vertex 0.8603150845 0.0437580533 0.0299999993
      vertex 0.8792989850 0.0333220586 0.0700000003
      vertex 0.8603150845 0.0437580533 0.0700000003
    endloop
  endfacet
  facet normal -0.4817362009 -0.8763162858 0.0000000000
    outer loop
      vertex 0.8603150845 0.0437580533 0.0299999993
      vertex 0.8792989850 0.0333220586 0.0299999993
      vertex 0.8792989850 0.0333220586 0.0700000003
    endloop
  endfacet
  facet normal -0.4817362009 -0.8763162858 0.0000000000
    outer loop
      vertex 0.8603150845 0.0437580533 0.0000000000
      vertex 0.8792989850 0.0333220586 0.0299999993
      vertex 0.8603150845 0.0437580533 0.0299999993
    endloop
  endfacet
  facet normal -0.4817362009 -0.8763162858 0.0000000000
    outer loop
      vertex 0.8603150845 0.0437580533 0.0000000000
      vertex 0.8792989850 0.0333220586 0.0000000000
      vertex 0.8792989850 0.0333220586 0.0299999993
    endloop
  endfacet
  facet normal -0.5310610535 -0.8473335574 0.0000000000
    outer loop
      vertex 0.8419172168 0.0552888028 0.0700000003
      vertex 0.8603150845 0.0437580533 0.1000000015
      vertex 0.8419172168 0.0552888028 0.1000000015
    endloop
  endfacet
  facet normal -0.5310610535 -0.8473335574 0.0000000000
    outer loop
      vertex 0.8419172168 0.0552888028 0.0700000003
      vertex 0.8603150845 0.0437580533 0.0700000003
      vertex 0.8603150845 0.0437580533 0.1000000015
    endloop
  endfacet
  facet normal -0.5310610535 -0.8473335574 0.0000000000
    outer loop
      vertex 0.8419172168 0.0552888028 0.0299999993
      vertex 0.8603150845 0.0437580533 0.0700000003
      vertex 0.8419172168 0.0552888028 0.0700000003
    endloop
  endfacet
  facet normal -0.5310610535 -0.8473335574 0.0000000000
    outer loop
      vertex 0.8419172168 0.0552888028 0.0299999993
      vertex 0.8603150845 0.0437580533 0.0299999993
      vertex 0.8603150845 0.0437580533 0.0700000003
    endloop
  endfacet
  facet normal -0.5310610535 -0.8473335574 0.0000000000
    outer loop
      vertex 0.8419172168 0.0552888028 0.0000000000
      vertex 0.8603150845 0.0437580533 0.0299999993
      vertex 0.8419172168 0.0552888028 0.0299999993
    endloop
  endfacet
  facet normal -0.5310610535 -0.8473335574 0.0000000000
    outer loop
      vertex 0.8419172168 0.0552888028 0.0000000000
      vertex 0.8603150845 0.0437580533 0.0000000000
      vertex 0.8603150845 0.0437580533 0.0299999993
    endloop
  endfacet
  facet normal -0.5685296734 -0.8226627562 0.0000000000
    outer loop
      vertex 0.8240324259 0.0676487088 0.0700000003
      vertex 0.8419172168 0.0552888028 0.1000000015
      vertex 0.8240324259 0.0676487088 0.1000000015
    endloop
  endfacet
  facet normal -0.5685296734 -0.8226627562 0.0000000000
    outer loop
      vertex 0.8240324259 0.0676487088 0.0700000003
      vertex 0.8419172168 0.0552888028 0.0700000003
      vertex 0.8419172168 0.0552888028 0.1000000015
    endloop
  endfacet
  facet normal -0.5685296734 -0.8226627562 0.0000000000
    outer loop
      vertex 0.8240324259 0.0676487088 0.0299999993
      vertex 0.8419172168 0.0552888028 0.0700000003
      vertex 0.8240324259 0.0676487088 0.0700000003
    endloop
  endfacet
  facet normal -0.5685296734 -0.8226627562 0.0000000000
    outer loop
      vertex 0.8240324259 0.0676487088 0.0299999993
      vertex 0.8419172168 0.0552888028 0.0299999993
      vertex 0.8419172168 0.0552888028 0.0700000003
    endloop
  endfacet
  facet normal -0.5685296734 -0.8226627562 0.0000000000
    outer loop
      vertex 0.8240324259 0.0676487088 0.0000000000
      vertex 0.8419172168 0.0552888028 0.0299999993
      vertex 0.8240324259 0.0676487088 0.0299999993
    endloop
  endfacet
  facet normal -0.5685296734 -0.8226627562 0.0000000000
    outer loop
      vertex 0.8240324259 0.0676487088 0.0000000000
      vertex 0.8419172168 0.0552888028 0.0000000000
      vertex 0.8419172168 0.0552888028 0.0299999993
    endloop
  endfacet
  facet normal -0.5967665839 -0.8024148830 0.0000000000
    outer loop
      vertex 0.8048310280 0.0819290429 0.0700000003
      vertex 0.8240324259 0.0676487088 0.1000000015
      vertex 0.8048310280 0.0819290429 0.1000000015
    endloop
  endfacet
  facet normal -0.5967665839 -0.8024148830 0.0000000000
    outer loop
      vertex 0.8048310280 0.0819290429 0.0700000003
      vertex 0.8240324259 0.0676487088 0.0700000003
      vertex 0.8240324259 0.0676487088 0.1000000015
    endloop
  endfacet
  facet normal -0.5967665839 -0.8024148830 0.0000000000
    outer loop
      vertex 0.8048310280 0.0819290429 0.0299999993
      vertex 0.8240324259 0.0676487088 0.0700000003
      vertex 0.8048310280 0.0819290429 0.0700000003
    endloop
  endfacet
  facet normal -0.5967665839 -0.8024148830 0.0000000000
    outer loop
      vertex 0.8048310280 0.0819290429 0.0299999993
      vertex 0.8240324259 0.0676487088 0.0299999993
      vertex 0.8240324259 0.0676487088 0.0700000003
    endloop
  endfacet
  facet normal -0.5967665839 -0.8024148830 0.0000000000
    outer loop
      vertex 0.8048310280 0.0819290429 0.0000000000
      vertex 0.8240324259 0.0676487088 0.0299999993
      vertex 0.8048310280 0.0819290429 0.0299999993
    endloop
  endfacet
  facet normal -0.5967665839 -0.8024148830 0.0000000000
    outer loop
      vertex 0.8048310280 0.0819290429 0.0000000000
      vertex 0.8240324259 0.0676487088 0.0000000000
      vertex 0.8240324259 0.0676487088 0.0299999993
    endloop
  endfacet
  facet normal -0.6170952212 -0.7868884851 0.0000000000
    outer loop
      vertex 0.7860112190 0.0966879502 0.0700000003
      vertex 0.8048310280 0.0819290429 0.1000000015
      vertex 0.7860112190 0.0966879502 0.1000000015
    endloop
  endfacet
  facet normal -0.6170952212 -0.7868884851 0.0000000000
    outer loop
      vertex 0.7860112190 0.0966879502 0.0700000003
      vertex 0.8048310280 0.0819290429 0.0700000003
      vertex 0.8048310280 0.0819290429 0.1000000015
    endloop
  endfacet
  facet normal -0.6170952212 -0.7868884851 0.0000000000
    outer loop
      vertex 0.7860112190 0.0966879502 0.0299999993
      vertex 0.8048310280 0.0819290429 0.0700000003
      vertex 0.7860112190 0.0966879502 0.0700000003
    endloop
  endfacet
  facet normal -0.6170952212 -0.7868884851 0.0000000000
    outer loop
      vertex 0.7860112190 0.0966879502 0.0299999993
      vertex 0.8048310280 0.0819290429 0.0299999993
      vertex 0.8048310280 0.0819290429 0.0700000003
    endloop
  endfacet
  facet normal -0.6170952212 -0.7868884851 0.0000000000
    outer loop
      vertex 0.7860112190 0.0966879502 0.0000000000
      vertex 0.8048310280 0.0819290429 0.0299999993
      vertex 0.7860112190 0.0966879502 0.0299999993
    endloop
  endfacet
  facet normal -0.6170952212 -0.7868884851 0.0000000000
    outer loop
      vertex 0.7860112190 0.0966879502 0.0000000000
      vertex 0.8048310280 0.0819290429 0.0000000000
      vertex 0.8048310280 0.0819290429 0.0299999993
    endloop
  endfacet
  facet normal -0.6304119157 -0.7762607916 0.0000000000
    outer loop
      vertex 0.7489066720 0.1268210560 0.0700000003
      vertex 0.7860112190 0.0966879502 0.1000000015
      vertex 0.7489066720 0.1268210560 0.1000000015
    endloop
  endfacet
  facet normal -0.6304119157 -0.7762607916 0.0000000000
    outer loop
      vertex 0.7489066720 0.1268210560 0.0700000003
      vertex 0.7860112190 0.0966879502 0.0700000003
      vertex 0.7860112190 0.0966879502 0.1000000015
    endloop
  endfacet
  facet normal -0.6304119157 -0.7762607916 0.0000000000
    outer loop
      vertex 0.7489066720 0.1268210560 0.0299999993
      vertex 0.7860112190 0.0966879502 0.0700000003
      vertex 0.7489066720 0.1268210560 0.0700000003
    endloop
  endfacet
  facet normal -0.6304119157 -0.7762607916 0.0000000000
    outer loop
      vertex 0.7489066720 0.1268210560 0.0299999993
      vertex 0.7860112190 0.0966879502 0.0299999993
      vertex 0.7860112190 0.0966879502 0.0700000003
    endloop
  endfacet
  facet normal -0.6304119157 -0.7762607916 0.0000000000
    outer loop
      vertex 0.7489066720 0.1268210560 0.0000000000
      vertex 0.7860112190 0.0966879502 0.0299999993
      vertex 0.7489066720 0.1268210560 0.0299999993
    endloop
  endfacet
  facet normal -0.6304119157 -0.7762607916 0.0000000000
    outer loop
      vertex 0.7489066720 0.1268210560 0.0000000000
      vertex 0.7860112190 0.0966879502 0.0000000000
      vertex 0.7860112190 0.0966879502 0.0299999993
    endloop
  endfacet
  facet normal -0.6256840240 -0.7800766002 0.0000000000
    outer loop
      vertex 0.7310631275 0.1411330104 0.0700000003
      vertex 0.7489066720 0.1268210560 0.1000000015
      vertex 0.7310631275 0.1411330104 0.1000000015
    endloop
  endfacet
  facet normal -0.6256840240 -0.7800766002 0.0000000000
    outer loop
      vertex 0.7310631275 0.1411330104 0.0700000003
      vertex 0.7489066720 0.1268210560 0.0700000003
      vertex 0.7489066720 0.1268210560 0.1000000015
    endloop
  endfacet
  facet normal -0.6256840240 -0.7800766002 0.0000000000
    outer loop
      vertex 0.7310631275 0.1411330104 0.0299999993
      vertex 0.7489066720 0.1268210560 0.0700000003
      vertex 0.7310631275 0.1411330104 0.0700000003
    endloop
  endfacet
  facet normal -0.6256840240 -0.7800766002 0.0000000000
    outer loop
      vertex 0.7310631275 0.1411330104 0.0299999993
      vertex 0.7489066720 0.1268210560 0.0299999993
      vertex 0.7489066720 0.1268210560 0.0700000003
    endloop
  endfacet
  facet normal -0.6256840240 -0.7800766002 0.0000000000
    outer loop
      vertex 0.7310631275 0.1411330104 0.0000000000
      vertex 0.7489066720 0.1268210560 0.0299999993
      vertex 0.7310631275 0.1411330104 0.0299999993
    endloop
  endfacet
  facet normal -0.6256840240 -0.7800766002 0.0000000000
    outer loop
      vertex 0.7310631275 0.1411330104 0.0000000000
      vertex 0.7489066720 0.1268210560 0.0000000000
      vertex 0.7489066720 0.1268210560 0.0299999993
    endloop
  endfacet
  facet normal -0.6034037756 -0.7974358179 0.0000000000
    outer loop
      vertex 0.7128494978 0.1549149007 0.0700000003
      vertex 0.7310631275 0.1411330104 0.1000000015
      vertex 0.7128494978 0.1549149007 0.1000000015
    endloop
  endfacet
  facet normal -0.6034037756 -0.7974358179 0.0000000000
    outer loop
      vertex 0.7128494978 0.1549149007 0.0700000003
      vertex 0.7310631275 0.1411330104 0.0700000003
      vertex 0.7310631275 0.1411330104 0.1000000015
    endloop
  endfacet
  facet normal -0.6034037756 -0.7974358179 0.0000000000
    outer loop
      vertex 0.7128494978 0.1549149007 0.0299999993
      vertex 0.7310631275 0.1411330104 0.0700000003
      vertex 0.7128494978 0.1549149007 0.0700000003
    endloop
  endfacet
  facet normal -0.6034037756 -0.7974358179 0.0000000000
    outer loop
      vertex 0.7128494978 0.1549149007 0.0299999993
      vertex 0.7310631275 0.1411330104 0.0299999993
      vertex 0.7310631275 0.1411330104 0.0700000003
    endloop
  endfacet
  facet normal -0.6034037756 -0.7974358179 0.0000000000
    outer loop
      vertex 0.7128494978 0.1549149007 0.0000000000
      vertex 0.7310631275 0.1411330104 0.0299999993
      vertex 0.7128494978 0.1549149007 0.0299999993
    endloop
  endfacet
  facet normal -0.6034037756 -0.7974358179 0.0000000000
    outer loop
      vertex 0.7128494978 0.1549149007 0.0000000000
      vertex 0.7310631275 0.1411330104 0.0000000000
      vertex 0.7310631275 0.1411330104 0.0299999993
    endloop
  endfacet
  facet normal -0.5624925970 -0.8268023212 0.0000000000
    outer loop
      vertex 0.6939651966 0.1677623242 0.0700000003
      vertex 0.7128494978 0.1549149007 0.1000000015
      vertex 0.6939651966 0.1677623242 0.1000000015
    endloop
  endfacet
  facet normal -0.5624925970 -0.8268023212 0.0000000000
    outer loop
      vertex 0.6939651966 0.1677623242 0.0700000003
      vertex 0.7128494978 0.1549149007 0.0700000003
      vertex 0.7128494978 0.1549149007 0.1000000015
    endloop
  endfacet
  facet normal -0.5624925970 -0.8268023212 0.0000000000
    outer loop
      vertex 0.6939651966 0.1677623242 0.0299999993
      vertex 0.7128494978 0.1549149007 0.0700000003
      vertex 0.6939651966 0.1677623242 0.0700000003
    endloop
  endfacet
  facet normal -0.5624925970 -0.8268023212 0.0000000000
    outer loop
      vertex 0.6939651966 0.1677623242 0.0299999993
      vertex 0.7128494978 0.1549149007 0.0299999993
      vertex 0.7128494978 0.1549149007 0.0700000003
    endloop
  endfacet
  facet normal -0.5624925970 -0.8268023212 0.0000000000
    outer loop
      vertex 0.6939651966 0.1677623242 0.0000000000
      vertex 0.7128494978 0.1549149007 0.0299999993
      vertex 0.6939651966 0.1677623242 0.0299999993
    endloop
  endfacet
  facet normal -0.5624925970 -0.8268023212 0.0000000000
    outer loop
      vertex 0.6939651966 0.1677623242 0.0000000000
      vertex 0.7128494978 0.1549149007 0.0000000000
      vertex 0.7128494978 0.1549149007 0.0299999993
    endloop
  endfacet
  facet normal -0.5014692714 -0.8651754561 0.0000000000
    outer loop
      vertex 0.6741097569 0.1792708486 0.0700000003
      vertex 0.6939651966 0.1677623242 0.1000000015
      vertex 0.6741097569 0.1792708486 0.1000000015
    endloop
  endfacet
  facet normal -0.5014692714 -0.8651754561 0.0000000000
    outer loop
      vertex 0.6741097569 0.1792708486 0.0700000003
      vertex 0.6939651966 0.1677623242 0.0700000003
      vertex 0.6939651966 0.1677623242 0.1000000015
    endloop
  endfacet
  facet normal -0.5014692714 -0.8651754561 0.0000000000
    outer loop
      vertex 0.6741097569 0.1792708486 0.0299999993
      vertex 0.6939651966 0.1677623242 0.0700000003
      vertex 0.6741097569 0.1792708486 0.0700000003
    endloop
  endfacet
  facet normal -0.5014692714 -0.8651754561 0.0000000000
    outer loop
      vertex 0.6741097569 0.1792708486 0.0299999993
      vertex 0.6939651966 0.1677623242 0.0299999993
      vertex 0.6939651966 0.1677623242 0.0700000003
    endloop
  endfacet
  facet normal -0.5014692714 -0.8651754561 0.0000000000
    outer loop
      vertex 0.6741097569 0.1792708486 0.0000000000
      vertex 0.6939651966 0.1677623242 0.0299999993
      vertex 0.6741097569 0.1792708486 0.0299999993
    endloop
  endfacet
  facet normal -0.5014692714 -0.8651754561 0.0000000000
    outer loop
      vertex 0.6741097569 0.1792708486 0.0000000000
      vertex 0.6939651966 0.1677623242 0.0000000000
      vertex 0.6939651966 0.1677623242 0.0299999993
    endloop
  endfacet
  facet normal -0.4263024831 -0.9045806724 0.0000000000
    outer loop
      vertex 0.6563746333 0.1876288950 0.0700000003
      vertex 0.6741097569 0.1792708486 0.1000000015
      vertex 0.6563746333 0.1876288950 0.1000000015
    endloop
  endfacet
  facet normal -0.4263024831 -0.9045806724 0.0000000000
    outer loop
      vertex 0.6563746333 0.1876288950 0.0700000003
      vertex 0.6741097569 0.1792708486 0.0700000003
      vertex 0.6741097569 0.1792708486 0.1000000015
    endloop
  endfacet
  facet normal -0.4263024831 -0.9045806724 0.0000000000
    outer loop
      vertex 0.6563746333 0.1876288950 0.0299999993
      vertex 0.6741097569 0.1792708486 0.0700000003
      vertex 0.6563746333 0.1876288950 0.0700000003
    endloop
  endfacet
  facet normal -0.4263024831 -0.9045806724 0.0000000000
    outer loop
      vertex 0.6563746333 0.1876288950 0.0299999993
      vertex 0.6741097569 0.1792708486 0.0299999993
      vertex 0.6741097569 0.1792708486 0.0700000003
    endloop
  endfacet
  facet normal -0.4263024831 -0.9045806724 0.0000000000
    outer loop
      vertex 0.6563746333 0.1876288950 0.0000000000
      vertex 0.6741097569 0.1792708486 0.0299999993
      vertex 0.6563746333 0.1876288950 0.0299999993
    endloop
  endfacet
  facet normal -0.4263024831 -0.9045806724 0.0000000000
    outer loop
      vertex 0.6563746333 0.1876288950 0.0000000000
      vertex 0.6741097569 0.1792708486 0.0000000000
      vertex 0.6741097569 0.1792708486 0.0299999993
    endloop
  endfacet
  facet normal -0.3373034251 -0.9413959844 0.0000000000
    outer loop
      vertex 0.6379568577 0.1942280084 0.0700000003
      vertex 0.6563746333 0.1876288950 0.1000000015
      vertex 0.6379568577 0.1942280084 0.1000000015
    endloop
  endfacet
  facet normal -0.3373034251 -0.9413959844 0.0000000000
    outer loop
      vertex 0.6379568577 0.1942280084 0.0700000003
      vertex 0.6563746333 0.1876288950 0.0700000003
      vertex 0.6563746333 0.1876288950 0.1000000015
    endloop
  endfacet
  facet normal -0.3373034251 -0.9413959844 0.0000000000
    outer loop
      vertex 0.6379568577 0.1942280084 0.0299999993
      vertex 0.6563746333 0.1876288950 0.0700000003
      vertex 0.6379568577 0.1942280084 0.0700000003
    endloop
  endfacet
  facet normal -0.3373034251 -0.9413959844 0.0000000000
    outer loop
      vertex 0.6379568577 0.1942280084 0.0299999993
      vertex 0.6563746333 0.1876288950 0.0299999993
      vertex 0.6563746333 0.1876288950 0.0700000003
    endloop
  endfacet
  facet normal -0.3373034251 -0.9413959844 0.0000000000
    outer loop
      vertex 0.6379568577 0.1942280084 0.0000000000
      vertex 0.6563746333 0.1876288950 0.0299999993
      vertex 0.6379568577 0.1942280084 0.0299999993
    endloop
  endfacet
  facet normal -0.3373034251 -0.9413959844 0.0000000000
    outer loop
      vertex 0.6379568577 0.1942280084 0.0000000000
      vertex 0.6563746333 0.1876288950 0.0000000000
      vertex 0.6563746333 0.1876288950 0.0299999993
    endloop
  endfacet
  facet normal -0.2553995360 -0.9668355998 0.0000000000
    outer loop
      vertex 0.6285638213 0.1967092752 0.0700000003
      vertex 0.6379568577 0.1942280084 0.1000000015
      vertex 0.6285638213 0.1967092752 0.1000000015
    endloop
  endfacet
  facet normal -0.2553995360 -0.9668355998 0.0000000000
    outer loop
      vertex 0.6285638213 0.1967092752 0.0700000003
      vertex 0.6379568577 0.1942280084 0.0700000003
      vertex 0.6379568577 0.1942280084 0.1000000015
    endloop
  endfacet
  facet normal -0.2553995360 -0.9668355998 0.0000000000
    outer loop
      vertex 0.6285638213 0.1967092752 0.0299999993
      vertex 0.6379568577 0.1942280084 0.0700000003
      vertex 0.6285638213 0.1967092752 0.0700000003
    endloop
  endfacet
  facet normal -0.2553995360 -0.9668355998 0.0000000000
    outer loop
      vertex 0.6285638213 0.1967092752 0.0299999993
      vertex 0.6379568577 0.1942280084 0.0299999993
      vertex 0.6379568577 0.1942280084 0.0700000003
    endloop
  endfacet
  facet normal -0.2553995360 -0.9668355998 0.0000000000
    outer loop
      vertex 0.6285638213 0.1967092752 0.0000000000
      vertex 0.6379568577 0.1942280084 0.0299999993
      vertex 0.6285638213 0.1967092752 0.0299999993
    endloop
  endfacet
  facet normal -0.2553995360 -0.9668355998 0.0000000000
    outer loop
      vertex 0.6285638213 0.1967092752 0.0000000000
      vertex 0.6379568577 0.1942280084 0.0000000000
      vertex 0.6379568577 0.1942280084 0.0299999993
    endloop
  endfacet
  facet normal -0.1916954825 -0.9814544523 0.0000000000
    outer loop
      vertex 0.6190863848 0.1985603869 0.0700000003
      vertex 0.6285638213 0.1967092752 0.1000000015
      vertex 0.6190863848 0.1985603869 0.1000000015
    endloop
  endfacet
  facet normal -0.1916954825 -0.9814544523 0.0000000000
    outer loop
      vertex 0.6190863848 0.1985603869 0.0700000003
      vertex 0.6285638213 0.1967092752 0.0700000003
      vertex 0.6285638213 0.1967092752 0.1000000015
    endloop
  endfacet
  facet normal -0.1916954825 -0.9814544523 0.0000000000
    outer loop
      vertex 0.6190863848 0.1985603869 0.0299999993
      vertex 0.6285638213 0.1967092752 0.0700000003
      vertex 0.6190863848 0.1985603869 0.0700000003
    endloop
  endfacet
  facet normal -0.1916954825 -0.9814544523 0.0000000000
    outer loop
      vertex 0.6190863848 0.1985603869 0.0299999993
      vertex 0.6285638213 0.1967092752 0.0299999993
      vertex 0.6285638213 0.1967092752 0.0700000003
    endloop
  endfacet
  facet normal -0.1916954825 -0.9814544523 0.0000000000
    outer loop
      vertex 0.6190863848 0.1985603869 0.0000000000
      vertex 0.6285638213 0.1967092752 0.0299999993
      vertex 0.6190863848 0.1985603869 0.0299999993
    endloop
  endfacet
  facet normal -0.1916954825 -0.9814544523 0.0000000000
    outer loop
      vertex 0.6190863848 0.1985603869 0.0000000000
      vertex 0.6285638213 0.1967092752 0.0000000000
      vertex 0.6285638213 0.1967092752 0.0299999993
    endloop
  endfacet
  facet normal -0.1205306738 -0.9927096034 0.0000000000
    outer loop
      vertex 0.6095532179 0.1997178644 0.0700000003
      vertex 0.6190863848 0.1985603869 0.1000000015
      vertex 0.6095532179 0.1997178644 0.1000000015
    endloop
  endfacet
  facet normal -0.1205306738 -0.9927096034 0.0000000000
    outer loop
      vertex 0.6095532179 0.1997178644 0.0700000003
      vertex 0.6190863848 0.1985603869 0.0700000003
      vertex 0.6190863848 0.1985603869 0.1000000015
    endloop
  endfacet
  facet normal -0.1205306738 -0.9927096034 0.0000000000
    outer loop
      vertex 0.6095532179 0.1997178644 0.0299999993
      vertex 0.6190863848 0.1985603869 0.0700000003
      vertex 0.6095532179 0.1997178644 0.0700000003
    endloop
  endfacet
  facet normal -0.1205306738 -0.9927096034 0.0000000000
    outer loop
      vertex 0.6095532179 0.1997178644 0.0299999993
      vertex 0.6190863848 0.1985603869 0.0299999993
      vertex 0.6190863848 0.1985603869 0.0700000003
    endloop
  endfacet
  facet normal -0.1205306738 -0.9927096034 0.0000000000
    outer loop
      vertex 0.6095532179 0.1997178644 0.0000000000
      vertex 0.6190863848 0.1985603869 0.0299999993
      vertex 0.6095532179 0.1997178644 0.0299999993
    endloop
  endfacet
  facet normal -0.1205306738 -0.9927096034 0.0000000000
    outer loop
      vertex 0.6095532179 0.1997178644 0.0000000000
      vertex 0.6190863848 0.1985603869 0.0000000000
      vertex 0.6190863848 0.1985603869 0.0299999993
    endloop
  endfacet
  facet normal -0.0418435263 -0.9991241761 0.0000000000
    outer loop
      vertex 0.5999931097 0.2001182437 0.0700000003
      vertex 0.6095532179 0.1997178644 0.1000000015
      vertex 0.5999931097 0.2001182437 0.1000000015
    endloop
  endfacet
  facet normal -0.0418435263 -0.9991241761 0.0000000000
    outer loop
      vertex 0.5999931097 0.2001182437 0.0700000003
      vertex 0.6095532179 0.1997178644 0.0700000003
      vertex 0.6095532179 0.1997178644 0.1000000015
    endloop
  endfacet
  facet normal -0.0418435263 -0.9991241761 0.0000000000
    outer loop
      vertex 0.5999931097 0.2001182437 0.0299999993
      vertex 0.6095532179 0.1997178644 0.0700000003
      vertex 0.5999931097 0.2001182437 0.0700000003
    endloop
  endfacet
  facet normal -0.0418435263 -0.9991241761 0.0000000000
    outer loop
      vertex 0.5999931097 0.2001182437 0.0299999993
      vertex 0.6095532179 0.1997178644 0.0299999993
      vertex 0.6095532179 0.1997178644 0.0700000003
    endloop
  endfacet
  facet normal -0.0418435263 -0.9991241761 0.0000000000
    outer loop
      vertex 0.5999931097 0.2001182437 0.0000000000
      vertex 0.6095532179 0.1997178644 0.0299999993
      vertex 0.5999931097 0.2001182437 0.0299999993
    endloop
  endfacet
  facet normal -0.0418435263 -0.9991241761 0.0000000000
    outer loop
      vertex 0.5999931097 0.2001182437 0.0000000000
      vertex 0.6095532179 0.1997178644 0.0000000000
      vertex 0.6095532179 0.1997178644 0.0299999993
    endloop
  endfacet
  facet normal 0.0423023953 -0.9991048530 0.0000000000
    outer loop
      vertex 0.5902968645 0.1997077018 0.0700000003
      vertex 0.5999931097 0.2001182437 0.1000000015
      vertex 0.5902968645 0.1997077018 0.1000000015
    endloop
  endfacet
  facet normal 0.0423023953 -0.9991048530 0.0000000000
    outer loop
      vertex 0.5902968645 0.1997077018 0.0700000003
      vertex 0.5999931097 0.2001182437 0.0700000003
      vertex 0.5999931097 0.2001182437 0.1000000015
    endloop
  endfacet
  facet normal 0.0423023953 -0.9991048530 0.0000000000
    outer loop
      vertex 0.5902968645 0.1997077018 0.0299999993
      vertex 0.5999931097 0.2001182437 0.0700000003
      vertex 0.5902968645 0.1997077018 0.0700000003
    endloop
  endfacet
  facet normal 0.0423023953 -0.9991048530 0.0000000000
    outer loop
      vertex 0.5902968645 0.1997077018 0.0299999993
      vertex 0.5999931097 0.2001182437 0.0299999993
      vertex 0.5999931097 0.2001182437 0.0700000003
    endloop
  endfacet
  facet normal 0.0423023953 -0.9991048530 0.0000000000
    outer loop
      vertex 0.5902968645 0.1997077018 0.0000000000
      vertex 0.5999931097 0.2001182437 0.0299999993
      vertex 0.5902968645 0.1997077018 0.0299999993
    endloop
  endfacet
  facet normal 0.0423023953 -0.9991048530 0.0000000000
    outer loop
      vertex 0.5902968645 0.1997077018 0.0000000000
      vertex 0.5999931097 0.2001182437 0.0000000000
      vertex 0.5999931097 0.2001182437 0.0299999993
    endloop
  endfacet
  facet normal 0.1220819219 -0.9925200272 0.0000000000
    outer loop
      vertex 0.5806313753 0.1985188276 0.0700000003
      vertex 0.5902968645 0.1997077018 0.1000000015
      vertex 0.5806313753 0.1985188276 0.1000000015
    endloop
  endfacet
  facet normal 0.1220819219 -0.9925200272 0.0000000000
    outer loop
      vertex 0.5806313753 0.1985188276 0.0700000003
      vertex 0.5902968645 0.1997077018 0.0700000003
      vertex 0.5902968645 0.1997077018 0.1000000015
    endloop
  endfacet
  facet normal 0.1220819219 -0.9925200272 0.0000000000
    outer loop
      vertex 0.5806313753 0.1985188276 0.0299999993
      vertex 0.5902968645 0.1997077018 0.0700000003
      vertex 0.5806313753 0.1985188276 0.0700000003
    endloop
  endfacet
  facet normal 0.1220819219 -0.9925200272 0.0000000000
    outer loop
      vertex 0.5806313753 0.1985188276 0.0299999993
      vertex 0.5902968645 0.1997077018 0.0299999993
      vertex 0.5902968645 0.1997077018 0.0700000003
    endloop
  endfacet
  facet normal 0.1220819219 -0.9925200272 0.0000000000
    outer loop
      vertex 0.5806313753 0.1985188276 0.0000000000
      vertex 0.5902968645 0.1997077018 0.0299999993
      vertex 0.5806313753 0.1985188276 0.0299999993
    endloop
  endfacet
  facet normal 0.1220819219 -0.9925200272 0.0000000000
    outer loop
      vertex 0.5806313753 0.1985188276 0.0000000000
      vertex 0.5902968645 0.1997077018 0.0000000000
      vertex 0.5902968645 0.1997077018 0.0299999993
    endloop
  endfacet
  facet normal 0.1941459555 -0.9809726540 0.0000000000
    outer loop
      vertex 0.5710255504 0.1966177225 0.0700000003
      vertex 0.5806313753 0.1985188276 0.1000000015
      vertex 0.5710255504 0.1966177225 0.1000000015
    endloop
  endfacet
  facet normal 0.1941459555 -0.9809726540 0.0000000000
    outer loop
      vertex 0.5710255504 0.1966177225 0.0700000003
      vertex 0.5806313753 0.1985188276 0.0700000003
      vertex 0.5806313753 0.1985188276 0.1000000015
    endloop
  endfacet
  facet normal 0.1941459555 -0.9809726540 0.0000000000
    outer loop
      vertex 0.5710255504 0.1966177225 0.0299999993
      vertex 0.5806313753 0.1985188276 0.0700000003
      vertex 0.5710255504 0.1966177225 0.0700000003
    endloop
  endfacet
  facet normal 0.1941459555 -0.9809726540 0.0000000000
    outer loop
      vertex 0.5710255504 0.1966177225 0.0299999993
      vertex 0.5806313753 0.1985188276 0.0299999993
      vertex 0.5806313753 0.1985188276 0.0700000003
    endloop
  endfacet
  facet normal 0.1941459555 -0.9809726540 0.0000000000
    outer loop
      vertex 0.5710255504 0.1966177225 0.0000000000
      vertex 0.5806313753 0.1985188276 0.0299999993
      vertex 0.5710255504 0.1966177225 0.0299999993
    endloop
  endfacet
  facet normal 0.1941459555 -0.9809726540 0.0000000000
    outer loop
      vertex 0.5710255504 0.1966177225 0.0000000000
      vertex 0.5806313753 0.1985188276 0.0000000000
      vertex 0.5806313753 0.1985188276 0.0299999993
    endloop
  endfacet
  facet normal 0.2585451643 -0.9659991708 0.0000000000
    outer loop
      vertex 0.5615082383 0.1940704584 0.0700000003
      vertex 0.5710255504 0.1966177225 0.1000000015
      vertex 0.5615082383 0.1940704584 0.1000000015
    endloop
  endfacet
  facet normal 0.2585451643 -0.9659991708 0.0000000000
    outer loop
      vertex 0.5615082383 0.1940704584 0.0700000003
      vertex 0.5710255504 0.1966177225 0.0700000003
      vertex 0.5710255504 0.1966177225 0.1000000015
    endloop
  endfacet
  facet normal 0.2585451643 -0.9659991708 0.0000000000
    outer loop
      vertex 0.5615082383 0.1940704584 0.0299999993
      vertex 0.5710255504 0.1966177225 0.0700000003
      vertex 0.5615082383 0.1940704584 0.0700000003
    endloop
  endfacet
  facet normal 0.2585451643 -0.9659991708 0.0000000000
    outer loop
      vertex 0.5615082383 0.1940704584 0.0299999993
      vertex 0.5710255504 0.1966177225 0.0299999993
      vertex 0.5710255504 0.1966177225 0.0700000003
    endloop
  endfacet
  facet normal 0.2585451643 -0.9659991708 0.0000000000
    outer loop
      vertex 0.5615082383 0.1940704584 0.0000000000
      vertex 0.5710255504 0.1966177225 0.0299999993
      vertex 0.5615082383 0.1940704584 0.0299999993
    endloop
  endfacet
  facet normal 0.2585451643 -0.9659991708 0.0000000000
    outer loop
      vertex 0.5615082383 0.1940704584 0.0000000000
      vertex 0.5710255504 0.1966177225 0.0000000000
      vertex 0.5710255504 0.1966177225 0.0299999993
    endloop
  endfacet
  facet normal 0.3410944613 -0.9400290253 0.0000000000
    outer loop
      vertex 0.5428547263 0.1873019338 0.0700000003
      vertex 0.5615082383 0.1940704584 0.1000000015
      vertex 0.5428547263 0.1873019338 0.1000000015
    endloop
  endfacet
  facet normal 0.3410944613 -0.9400290253 0.0000000000
    outer loop
      vertex 0.5428547263 0.1873019338 0.0700000003
      vertex 0.5615082383 0.1940704584 0.0700000003
      vertex 0.5615082383 0.1940704584 0.1000000015
    endloop
  endfacet
  facet normal 0.3410944613 -0.9400290253 0.0000000000
    outer loop
      vertex 0.5428547263 0.1873019338 0.0299999993
      vertex 0.5615082383 0.1940704584 0.0700000003
      vertex 0.5428547263 0.1873019338 0.0700000003
    endloop
  endfacet
  facet normal 0.3410944613 -0.9400290253 0.0000000000
    outer loop
      vertex 0.5428547263 0.1873019338 0.0299999993
      vertex 0.5615082383 0.1940704584 0.0299999993
      vertex 0.5615082383 0.1940704584 0.0700000003
    endloop
  endfacet
  facet normal 0.3410944613 -0.9400290253 0.0000000000
    outer loop
      vertex 0.5428547263 0.1873019338 0.0000000000
      vertex 0.5615082383 0.1940704584 0.0299999993
      vertex 0.5428547263 0.1873019338 0.0299999993
    endloop
  endfacet
  facet normal 0.3410944613 -0.9400290253 0.0000000000
    outer loop
      vertex 0.5428547263 0.1873019338 0.0000000000
      vertex 0.5615082383 0.1940704584 0.0000000000
      vertex 0.5615082383 0.1940704584 0.0299999993
    endloop
  endfacet
  facet normal 0.4303832850 -0.9026462363 0.0000000000
    outer loop
      vertex 0.5249019861 0.1787420362 0.0700000003
      vertex 0.5428547263 0.1873019338 0.1000000015
      vertex 0.5249019861 0.1787420362 0.1000000015
    endloop
  endfacet
  facet normal 0.4303832850 -0.9026462363 0.0000000000
    outer loop
      vertex 0.5249019861 0.1787420362 0.0700000003
      vertex 0.5428547263 0.1873019338 0.0700000003
      vertex 0.5428547263 0.1873019338 0.1000000015
    endloop
  endfacet
  facet normal 0.4303832850 -0.9026462363 0.0000000000
    outer loop
      vertex 0.5249019861 0.1787420362 0.0299999993
      vertex 0.5428547263 0.1873019338 0.0700000003
      vertex 0.5249019861 0.1787420362 0.0700000003
    endloop
  endfacet
  facet normal 0.4303832850 -0.9026462363 0.0000000000
    outer loop
      vertex 0.5249019861 0.1787420362 0.0299999993
      vertex 0.5428547263 0.1873019338 0.0299999993
      vertex 0.5428547263 0.1873019338 0.0700000003
    endloop
  endfacet
  facet normal 0.4303832850 -0.9026462363 0.0000000000
    outer loop
      vertex 0.5249019861 0.1787420362 0.0000000000
      vertex 0.5428547263 0.1873019338 0.0299999993
      vertex 0.5249019861 0.1787420362 0.0299999993
    endloop
  endfacet
  facet normal 0.4303832850 -0.9026462363 0.0000000000
    outer loop
      vertex 0.5249019861 0.1787420362 0.0000000000
      vertex 0.5428547263 0.1873019338 0.0000000000
      vertex 0.5428547263 0.1873019338 0.0299999993
    endloop
  endfacet
  facet normal 0.5048742762 -0.8631928899 0.0000000000
    outer loop
      vertex 0.5050563812 0.1671345085 0.0700000003
      vertex 0.5249019861 0.1787420362 0.1000000015
      vertex 0.5050563812 0.1671345085 0.1000000015
    endloop
  endfacet
  facet normal 0.5048742762 -0.8631928899 0.0000000000
    outer loop
      vertex 0.5050563812 0.1671345085 0.0700000003
      vertex 0.5249019861 0.1787420362 0.0700000003
      vertex 0.5249019861 0.1787420362 0.1000000015
    endloop
  endfacet
  facet normal 0.5048742762 -0.8631928899 0.0000000000
    outer loop
      vertex 0.5050563812 0.1671345085 0.0299999993
      vertex 0.5249019861 0.1787420362 0.0700000003
      vertex 0.5050563812 0.1671345085 0.0700000003
    endloop
  endfacet
  facet normal 0.5048742762 -0.8631928899 0.0000000000
    outer loop
      vertex 0.5050563812 0.1671345085 0.0299999993
      vertex 0.5249019861 0.1787420362 0.0299999993
      vertex 0.5249019861 0.1787420362 0.0700000003
    endloop
  endfacet
  facet normal 0.5048742762 -0.8631928899 0.0000000000
    outer loop
      vertex 0.5050563812 0.1671345085 0.0000000000
      vertex 0.5249019861 0.1787420362 0.0299999993
      vertex 0.5050563812 0.1671345085 0.0299999993
    endloop
  endfacet
  facet normal 0.5048742762 -0.8631928899 0.0000000000
    outer loop
      vertex 0.5050563812 0.1671345085 0.0000000000
      vertex 0.5249019861 0.1787420362 0.0000000000
      vertex 0.5249019861 0.1787420362 0.0299999993
    endloop
  endfacet
  facet normal 0.5648104973 -0.8252206385 0.0000000000
    outer loop
      vertex 0.4861750007 0.1542114168 0.0700000003
      vertex 0.5050563812 0.1671345085 0.1000000015
      vertex 0.4861750007 0.1542114168 0.1000000015
    endloop
  endfacet
  facet normal 0.5648104973 -0.8252206385 0.0000000000
    outer loop
      vertex 0.4861750007 0.1542114168 0.0700000003
      vertex 0.5050563812 0.1671345085 0.0700000003
      vertex 0.5050563812 0.1671345085 0.1000000015
    endloop
  endfacet
  facet normal 0.5648104973 -0.8252206385 0.0000000000
    outer loop
      vertex 0.4861750007 0.1542114168 0.0299999993
      vertex 0.5050563812 0.1671345085 0.0700000003
      vertex 0.4861750007 0.1542114168 0.0700000003
    endloop
  endfacet
  facet normal 0.5648104973 -0.8252206385 0.0000000000
    outer loop
      vertex 0.4861750007 0.1542114168 0.0299999993
      vertex 0.5050563812 0.1671345085 0.0299999993
      vertex 0.5050563812 0.1671345085 0.0700000003
    endloop
  endfacet
  facet normal 0.5648104973 -0.8252206385 0.0000000000
    outer loop
      vertex 0.4861750007 0.1542114168 0.0000000000
      vertex 0.5050563812 0.1671345085 0.0299999993
      vertex 0.4861750007 0.1542114168 0.0299999993
    endloop
  endfacet
  facet normal 0.5648104973 -0.8252206385 0.0000000000
    outer loop
      vertex 0.4861750007 0.1542114168 0.0000000000
      vertex 0.5050563812 0.1671345085 0.0000000000
      vertex 0.5050563812 0.1671345085 0.0299999993
    endloop
  endfacet
  facet normal 0.6048691597 -0.7963248706 0.0000000000
    outer loop
      vertex 0.4679560065 0.1403727084 0.0700000003
      vertex 0.4861750007 0.1542114168 0.1000000015
      vertex 0.4679560065 0.1403727084 0.1000000015
    endloop
  endfacet
  facet normal 0.6048691597 -0.7963248706 0.0000000000
    outer loop
      vertex 0.4679560065 0.1403727084 0.0700000003
      vertex 0.4861750007 0.1542114168 0.0700000003
      vertex 0.4861750007 0.1542114168 0.1000000015
    endloop
  endfacet
  facet normal 0.6048691597 -0.7963248706 0.0000000000
    outer loop
      vertex 0.4679560065 0.1403727084 0.0299999993
      vertex 0.4861750007 0.1542114168 0.0700000003
      vertex 0.4679560065 0.1403727084 0.0700000003
    endloop
  endfacet
  facet normal 0.6048691597 -0.7963248706 0.0000000000
    outer loop
      vertex 0.4679560065 0.1403727084 0.0299999993
      vertex 0.4861750007 0.1542114168 0.0299999993
      vertex 0.4861750007 0.1542114168 0.0700000003
    endloop
  endfacet
  facet normal 0.6048691597 -0.7963248706 0.0000000000
    outer loop
      vertex 0.4679560065 0.1403727084 0.0000000000
      vertex 0.4861750007 0.1542114168 0.0299999993
      vertex 0.4679560065 0.1403727084 0.0299999993
    endloop
  endfacet
  facet normal 0.6048691597 -0.7963248706 0.0000000000
    outer loop
      vertex 0.4679560065 0.1403727084 0.0000000000
      vertex 0.4861750007 0.1542114168 0.0000000000
      vertex 0.4861750007 0.1542114168 0.0299999993
    endloop
  endfacet
  facet normal 0.6264904340 -0.7794291091 0.0000000000
    outer loop
      vertex 0.4500974417 0.1260183305 0.0700000003
      vertex 0.4679560065 0.1403727084 0.1000000015
      vertex 0.4500974417 0.1260183305 0.1000000015
    endloop
  endfacet
  facet normal 0.6264904340 -0.7794291091 0.0000000000
    outer loop
      vertex 0.4500974417 0.1260183305 0.0700000003
      vertex 0.4679560065 0.1403727084 0.0700000003
      vertex 0.4679560065 0.1403727084 0.1000000015
    endloop
  endfacet
  facet normal 0.6264904340 -0.7794291091 0.0000000000
    outer loop
      vertex 0.4500974417 0.1260183305 0.0299999993
      vertex 0.4679560065 0.1403727084 0.0700000003
      vertex 0.4500974417 0.1260183305 0.0700000003
    endloop
  endfacet
  facet normal 0.6264904340 -0.7794291091 0.0000000000
    outer loop
      vertex 0.4500974417 0.1260183305 0.0299999993
      vertex 0.4679560065 0.1403727084 0.0299999993
      vertex 0.4679560065 0.1403727084 0.0700000003
    endloop
  endfacet
  facet normal 0.6264904340 -0.7794291091 0.0000000000
    outer loop
      vertex 0.4500974417 0.1260183305 0.0000000000
      vertex 0.4679560065 0.1403727084 0.0299999993
      vertex 0.4500974417 0.1260183305 0.0299999993
    endloop
  endfacet
  facet normal 0.6264904340 -0.7794291091 0.0000000000
    outer loop
      vertex 0.4500974417 0.1260183305 0.0000000000
      vertex 0.4679560065 0.1403727084 0.0000000000
      vertex 0.4679560065 0.1403727084 0.0299999993
    endloop
  endfacet
  facet normal 0.6304029649 -0.7762680605 0.0000000000
    outer loop
      vertex 0.4130074978 0.0958977938 0.0700000003
      vertex 0.4500974417 0.1260183305 0.1000000015
      vertex 0.4130074978 0.0958977938 0.1000000015
    endloop
  endfacet
  facet normal 0.6304029649 -0.7762680605 0.0000000000
    outer loop
      vertex 0.4130074978 0.0958977938 0.0700000003
      vertex 0.4500974417 0.1260183305 0.0700000003
      vertex 0.4500974417 0.1260183305 0.1000000015
    endloop
  endfacet
  facet normal 0.6304029649 -0.7762680605 0.0000000000
    outer loop
      vertex 0.4130074978 0.0958977938 0.0299999993
      vertex 0.4500974417 0.1260183305 0.0700000003
      vertex 0.4130074978 0.0958977938 0.0700000003
    endloop
  endfacet
  facet normal 0.6304029649 -0.7762680605 0.0000000000
    outer loop
      vertex 0.4130074978 0.0958977938 0.0299999993
      vertex 0.4500974417 0.1260183305 0.0299999993
      vertex 0.4500974417 0.1260183305 0.0700000003
    endloop
  endfacet
  facet normal 0.6304029649 -0.7762680605 0.0000000000
    outer loop
      vertex 0.4130074978 0.0958977938 0.0000000000
      vertex 0.4500974417 0.1260183305 0.0299999993
      vertex 0.4130074978 0.0958977938 0.0299999993
    endloop
  endfacet
  facet normal 0.6304029649 -0.7762680605 0.0000000000
    outer loop
      vertex 0.4130074978 0.0958977938 0.0000000000
      vertex 0.4500974417 0.1260183305 0.0000000000
      vertex 0.4500974417 0.1260183305 0.0299999993
    endloop
  endfacet
  facet normal 0.6162602965 -0.7875425366 0.0000000000
    outer loop
      vertex 0.3941791952 0.0811644495 0.0700000003
      vertex 0.4130074978 0.0958977938 0.1000000015
      vertex 0.3941791952 0.0811644495 0.1000000015
    endloop
  endfacet
  facet normal 0.6162602965 -0.7875425366 0.0000000000
    outer loop
      vertex 0.3941791952 0.0811644495 0.0700000003
      vertex 0.4130074978 0.0958977938 0.0700000003
      vertex 0.4130074978 0.0958977938 0.1000000015
    endloop
  endfacet
  facet normal 0.6162602965 -0.7875425366 0.0000000000
    outer loop
      vertex 0.3941791952 0.0811644495 0.0299999993
      vertex 0.4130074978 0.0958977938 0.0700000003
      vertex 0.3941791952 0.0811644495 0.0700000003
    endloop
  endfacet
  facet normal 0.6162602965 -0.7875425366 0.0000000000
    outer loop
      vertex 0.3941791952 0.0811644495 0.0299999993
      vertex 0.4130074978 0.0958977938 0.0299999993
      vertex 0.4130074978 0.0958977938 0.0700000003
    endloop
  endfacet
  facet normal 0.6162602965 -0.7875425366 0.0000000000
    outer loop
      vertex 0.3941791952 0.0811644495 0.0000000000
      vertex 0.4130074978 0.0958977938 0.0299999993
      vertex 0.3941791952 0.0811644495 0.0299999993
    endloop
  endfacet
  facet normal 0.6162602965 -0.7875425366 0.0000000000
    outer loop
      vertex 0.3941791952 0.0811644495 0.0000000000
      vertex 0.4130074978 0.0958977938 0.0000000000
      vertex 0.4130074978 0.0958977938 0.0299999993
    endloop
  endfacet
  facet normal 0.5953467206 -0.8034689056 0.0000000000
    outer loop
      vertex 0.3749601841 0.0669237301 0.0700000003
      vertex 0.3941791952 0.0811644495 0.1000000015
      vertex 0.3749601841 0.0669237301 0.1000000015
    endloop
  endfacet
  facet normal 0.5953467206 -0.8034689056 0.0000000000
    outer loop
      vertex 0.3749601841 0.0669237301 0.0700000003
      vertex 0.3941791952 0.0811644495 0.0700000003
      vertex 0.3941791952 0.0811644495 0.1000000015
    endloop
  endfacet
  facet normal 0.5953467206 -0.8034689056 0.0000000000
    outer loop
      vertex 0.3749601841 0.0669237301 0.0299999993
      vertex 0.3941791952 0.0811644495 0.0700000003
      vertex 0.3749601841 0.0669237301 0.0700000003
    endloop
  endfacet
  facet normal 0.5953467206 -0.8034689056 0.0000000000
    outer loop
      vertex 0.3749601841 0.0669237301 0.0299999993
      vertex 0.3941791952 0.0811644495 0.0299999993
      vertex 0.3941791952 0.0811644495 0.0700000003
    endloop
  endfacet
  facet normal 0.5953467206 -0.8034689056 0.0000000000
    outer loop
      vertex 0.3749601841 0.0669237301 0.0000000000
      vertex 0.3941791952 0.0811644495 0.0299999993
      vertex 0.3749601841 0.0669237301 0.0299999993
    endloop
  endfacet
  facet normal 0.5953467206 -0.8034689056 0.0000000000
    outer loop
      vertex 0.3749601841 0.0669237301 0.0000000000
      vertex 0.3941791952 0.0811644495 0.0000000000
      vertex 0.3941791952 0.0811644495 0.0299999993
    endloop
  endfacet
  facet normal 0.5665465417 -0.8240297422 0.0000000000
    outer loop
      vertex 0.3570785522 0.0546295419 0.0700000003
      vertex 0.3749601841 0.0669237301 0.1000000015
      vertex 0.3570785522 0.0546295419 0.1000000015
    endloop
  endfacet
  facet normal 0.5665465417 -0.8240297422 0.0000000000
    outer loop
      vertex 0.3570785522 0.0546295419 0.0700000003
      vertex 0.3749601841 0.0669237301 0.0700000003
      vertex 0.3749601841 0.0669237301 0.1000000015
    endloop
  endfacet
  facet normal 0.5665465417 -0.8240297422 0.0000000000
    outer loop
      vertex 0.3570785522 0.0546295419 0.0299999993
      vertex 0.3749601841 0.0669237301 0.0700000003
      vertex 0.3570785522 0.0546295419 0.0700000003
    endloop
  endfacet
  facet normal 0.5665465417 -0.8240297422 0.0000000000
    outer loop
      vertex 0.3570785522 0.0546295419 0.0299999993
      vertex 0.3749601841 0.0669237301 0.0299999993
      vertex 0.3749601841 0.0669237301 0.0700000003
    endloop
  endfacet
  facet normal 0.5665465417 -0.8240297422 0.0000000000
    outer loop
      vertex 0.3570785522 0.0546295419 0.0000000000
      vertex 0.3749601841 0.0669237301 0.0299999993
      vertex 0.3570785522 0.0546295419 0.0299999993
    endloop
  endfacet
  facet normal 0.5665465417 -0.8240297422 0.0000000000
    outer loop
      vertex 0.3570785522 0.0546295419 0.0000000000
      vertex 0.3749601841 0.0669237301 0.0000000000
      vertex 0.3749601841 0.0669237301 0.0299999993
    endloop
  endfacet
  facet normal 0.5285978820 -0.8488723574 0.0000000000
    outer loop
      vertex 0.3386813402 0.0431734882 0.0700000003
      vertex 0.3570785522 0.0546295419 0.1000000015
      vertex 0.3386813402 0.0431734882 0.1000000015
    endloop
  endfacet
  facet normal 0.5285978820 -0.8488723574 0.0000000000
    outer loop
      vertex 0.3386813402 0.0431734882 0.0700000003
      vertex 0.3570785522 0.0546295419 0.0700000003
      vertex 0.3570785522 0.0546295419 0.1000000015
    endloop
  endfacet
  facet normal 0.5285978820 -0.8488723574 0.0000000000
    outer loop
      vertex 0.3386813402 0.0431734882 0.0299999993
      vertex 0.3570785522 0.0546295419 0.0700000003
      vertex 0.3386813402 0.0431734882 0.0700000003
    endloop
  endfacet
  facet normal 0.5285978820 -0.8488723574 0.0000000000
    outer loop
      vertex 0.3386813402 0.0431734882 0.0299999993
      vertex 0.3570785522 0.0546295419 0.0299999993
      vertex 0.3570785522 0.0546295419 0.0700000003
    endloop
  endfacet
  facet normal 0.5285978820 -0.8488723574 0.0000000000
    outer loop
      vertex 0.3386813402 0.0431734882 0.0000000000
      vertex 0.3570785522 0.0546295419 0.0299999993
      vertex 0.3386813402 0.0431734882 0.0299999993
    endloop
  endfacet
  facet normal 0.5285978820 -0.8488723574 0.0000000000
    outer loop
      vertex 0.3386813402 0.0431734882 0.0000000000
      vertex 0.3570785522 0.0546295419 0.0000000000
      vertex 0.3570785522 0.0546295419 0.0299999993
    endloop
  endfacet
  facet normal 0.4788454917 -0.8778991942 0.0000000000
    outer loop
      vertex 0.3196986020 0.0328194536 0.0700000003
      vertex 0.3386813402 0.0431734882 0.1000000015
      vertex 0.3196986020 0.0328194536 0.1000000015
    endloop
  endfacet
  facet normal 0.4788454917 -0.8778991942 0.0000000000
    outer loop
      vertex 0.3196986020 0.0328194536 0.0700000003
      vertex 0.3386813402 0.0431734882 0.0700000003
      vertex 0.3386813402 0.0431734882 0.1000000015
    endloop
  endfacet
  facet normal 0.4788454917 -0.8778991942 0.0000000000
    outer loop
      vertex 0.3196986020 0.0328194536 0.0299999993
      vertex 0.3386813402 0.0431734882 0.0700000003
      vertex 0.3196986020 0.0328194536 0.0700000003
    endloop
  endfacet
  facet normal 0.4788454917 -0.8778991942 0.0000000000
    outer loop
      vertex 0.3196986020 0.0328194536 0.0299999993
      vertex 0.3386813402 0.0431734882 0.0299999993
      vertex 0.3386813402 0.0431734882 0.0700000003
    endloop
  endfacet
  facet normal 0.4788454917 -0.8778991942 0.0000000000
    outer loop
      vertex 0.3196986020 0.0328194536 0.0000000000
      vertex 0.3386813402 0.0431734882 0.0299999993
      vertex 0.3196986020 0.0328194536 0.0299999993
    endloop
  endfacet
  facet normal 0.4788454917 -0.8778991942 0.0000000000
    outer loop
      vertex 0.3196986020 0.0328194536 0.0000000000
      vertex 0.3386813402 0.0431734882 0.0000000000
      vertex 0.3386813402 0.0431734882 0.0299999993
    endloop
  endfacet
  facet normal 0.4161677207 -0.9092878687 0.0000000000
    outer loop
      vertex 0.3000603616 0.0238313191 0.0700000003
      vertex 0.3196986020 0.0328194536 0.1000000015
      vertex 0.3000603616 0.0238313191 0.1000000015
    endloop
  endfacet
  facet normal 0.4161677207 -0.9092878687 0.0000000000
    outer loop
      vertex 0.3000603616 0.0238313191 0.0700000003
      vertex 0.3196986020 0.0328194536 0.0700000003
      vertex 0.3196986020 0.0328194536 0.1000000015
    endloop
  endfacet
  facet normal 0.4161677207 -0.9092878687 0.0000000000
    outer loop
      vertex 0.3000603616 0.0238313191 0.0299999993
      vertex 0.3196986020 0.0328194536 0.0700000003
      vertex 0.3000603616 0.0238313191 0.0700000003
    endloop
  endfacet
  facet normal 0.4161677207 -0.9092878687 0.0000000000
    outer loop
      vertex 0.3000603616 0.0238313191 0.0299999993
      vertex 0.3196986020 0.0328194536 0.0299999993
      vertex 0.3196986020 0.0328194536 0.0700000003
    endloop
  endfacet
  facet normal 0.4161677207 -0.9092878687 0.0000000000
    outer loop
      vertex 0.3000603616 0.0238313191 0.0000000000
      vertex 0.3196986020 0.0328194536 0.0299999993
      vertex 0.3000603616 0.0238313191 0.0299999993
    endloop
  endfacet
  facet normal 0.4161677207 -0.9092878687 0.0000000000
    outer loop
      vertex 0.3000603616 0.0238313191 0.0000000000
      vertex 0.3196986020 0.0328194536 0.0000000000
      vertex 0.3196986020 0.0328194536 0.0299999993
    endloop
  endfacet
  facet normal 0.3465216137 -0.9380419880 0.0000000000
    outer loop
      vertex 0.2818494141 0.0171040222 0.0700000003
      vertex 0.3000603616 0.0238313191 0.1000000015
      vertex 0.2818494141 0.0171040222 0.1000000015
    endloop
  endfacet
  facet normal 0.3465216137 -0.9380419880 0.0000000000
    outer loop
      vertex 0.2818494141 0.0171040222 0.0700000003
      vertex 0.3000603616 0.0238313191 0.0700000003
      vertex 0.3000603616 0.0238313191 0.1000000015
    endloop
  endfacet
  facet normal 0.3465216137 -0.9380419880 0.0000000000
    outer loop
      vertex 0.2818494141 0.0171040222 0.0299999993
      vertex 0.3000603616 0.0238313191 0.0700000003
      vertex 0.2818494141 0.0171040222 0.0700000003
    endloop
  endfacet
  facet normal 0.3465216137 -0.9380419880 0.0000000000
    outer loop
      vertex 0.2818494141 0.0171040222 0.0299999993
      vertex 0.3000603616 0.0238313191 0.0299999993
      vertex 0.3000603616 0.0238313191 0.0700000003
    endloop
  endfacet
  facet normal 0.3465216137 -0.9380419880 0.0000000000
    outer loop
      vertex 0.2818494141 0.0171040222 0.0000000000
      vertex 0.3000603616 0.0238313191 0.0299999993
      vertex 0.2818494141 0.0171040222 0.0299999993
    endloop
  endfacet
  facet normal 0.3465216137 -0.9380419880 0.0000000000
    outer loop
      vertex 0.2818494141 0.0171040222 0.0000000000
      vertex 0.3000603616 0.0238313191 0.0000000000
      vertex 0.3000603616 0.0238313191 0.0299999993
    endloop
  endfacet
  facet normal 0.2810956351 -0.9596797611 0.0000000000
    outer loop
      vertex 0.2631790340 0.0116353622 0.0700000003
      vertex 0.2818494141 0.0171040222 0.1000000015
      vertex 0.2631790340 0.0116353622 0.1000000015
    endloop
  endfacet
  facet normal 0.2810956351 -0.9596797611 0.0000000000
    outer loop
      vertex 0.2631790340 0.0116353622 0.0700000003
      vertex 0.2818494141 0.0171040222 0.0700000003
      vertex 0.2818494141 0.0171040222 0.1000000015
    endloop
  endfacet
  facet normal 0.2810956351 -0.9596797611 0.0000000000
    outer loop
      vertex 0.2631790340 0.0116353622 0.0299999993
      vertex 0.2818494141 0.0171040222 0.0700000003
      vertex 0.2631790340 0.0116353622 0.0700000003
    endloop
  endfacet
  facet normal 0.2810956351 -0.9596797611 0.0000000000
    outer loop
      vertex 0.2631790340 0.0116353622 0.0299999993
      vertex 0.2818494141 0.0171040222 0.0299999993
      vertex 0.2818494141 0.0171040222 0.0700000003
    endloop
  endfacet
  facet normal 0.2810956351 -0.9596797611 0.0000000000
    outer loop
      vertex 0.2631790340 0.0116353622 0.0000000000
      vertex 0.2818494141 0.0171040222 0.0299999993
      vertex 0.2631790340 0.0116353622 0.0299999993
    endloop
  endfacet
  facet normal 0.2810956351 -0.9596797611 0.0000000000
    outer loop
      vertex 0.2631790340 0.0116353622 0.0000000000
      vertex 0.2818494141 0.0171040222 0.0000000000
      vertex 0.2818494141 0.0171040222 0.0299999993
    endloop
  endfacet
  facet normal 0.2189238781 -0.9757419411 0.0000000000
    outer loop
      vertex 0.2441741079 0.0073712920 0.0700000003
      vertex 0.2631790340 0.0116353622 0.1000000015
      vertex 0.2441741079 0.0073712920 0.1000000015
    endloop
  endfacet
  facet normal 0.2189238781 -0.9757419411 0.0000000000
    outer loop
      vertex 0.2441741079 0.0073712920 0.0700000003
      vertex 0.2631790340 0.0116353622 0.0700000003
      vertex 0.2631790340 0.0116353622 0.1000000015
    endloop
  endfacet
  facet normal 0.2189238781 -0.9757419411 0.0000000000
    outer loop
      vertex 0.2441741079 0.0073712920 0.0299999993
      vertex 0.2631790340 0.0116353622 0.0700000003
      vertex 0.2441741079 0.0073712920 0.0700000003
    endloop
  endfacet
  facet normal 0.2189238781 -0.9757419411 0.0000000000
    outer loop
      vertex 0.2441741079 0.0073712920 0.0299999993
      vertex 0.2631790340 0.0116353622 0.0299999993
      vertex 0.2631790340 0.0116353622 0.0700000003
    endloop
  endfacet
  facet normal 0.2189238781 -0.9757419411 0.0000000000
    outer loop
      vertex 0.2441741079 0.0073712920 0.0000000000
      vertex 0.2631790340 0.0116353622 0.0299999993
      vertex 0.2441741079 0.0073712920 0.0299999993
    endloop
  endfacet
  facet normal 0.2189238781 -0.9757419411 0.0000000000
    outer loop
      vertex 0.2441741079 0.0073712920 0.0000000000
      vertex 0.2631790340 0.0116353622 0.0000000000
      vertex 0.2631790340 0.0116353622 0.0299999993
    endloop
  endfacet
  facet normal 0.1599536752 -0.9871245219 0.0000000000
    outer loop
      vertex 0.2249595672 0.0042577675 0.0700000003
      vertex 0.2441741079 0.0073712920 0.1000000015
      vertex 0.2249595672 0.0042577675 0.1000000015
    endloop
  endfacet
  facet normal 0.1599536752 -0.9871245219 0.0000000000
    outer loop
      vertex 0.2249595672 0.0042577675 0.0700000003
      vertex 0.2441741079 0.0073712920 0.0700000003
      vertex 0.2441741079 0.0073712920 0.1000000015
    endloop
  endfacet
  facet normal 0.1599536752 -0.9871245219 0.0000000000
    outer loop
      vertex 0.2249595672 0.0042577675 0.0299999993
      vertex 0.2441741079 0.0073712920 0.0700000003
      vertex 0.2249595672 0.0042577675 0.0700000003
    endloop
  endfacet
  facet normal 0.1599536752 -0.9871245219 0.0000000000
    outer loop
      vertex 0.2249595672 0.0042577675 0.0299999993
      vertex 0.2441741079 0.0073712920 0.0299999993
      vertex 0.2441741079 0.0073712920 0.0700000003
    endloop
  endfacet
  facet normal 0.1599536752 -0.9871245219 0.0000000000
    outer loop
      vertex 0.2249595672 0.0042577675 0.0000000000
      vertex 0.2441741079 0.0073712920 0.0299999993
      vertex 0.2249595672 0.0042577675 0.0299999993
    endloop
  endfacet
  facet normal 0.1599536752 -0.9871245219 0.0000000000
    outer loop
      vertex 0.2249595672 0.0042577675 0.0000000000
      vertex 0.2441741079 0.0073712920 0.0000000000
      vertex 0.2441741079 0.0073712920 0.0299999993
    endloop
  endfacet
  facet normal 0.1063225525 -0.9943316926 0.0000000000
    outer loop
      vertex 0.2062904239 0.0022615010 0.0700000003
      vertex 0.2249595672 0.0042577675 0.1000000015
      vertex 0.2062904239 0.0022615010 0.1000000015
    endloop
  endfacet
  facet normal 0.1063225525 -0.9943316926 0.0000000000
    outer loop
      vertex 0.2062904239 0.0022615010 0.0700000003
      vertex 0.2249595672 0.0042577675 0.0700000003
      vertex 0.2249595672 0.0042577675 0.1000000015
    endloop
  endfacet
  facet normal 0.1063225525 -0.9943316926 0.0000000000
    outer loop
      vertex 0.2062904239 0.0022615010 0.0299999993
      vertex 0.2249595672 0.0042577675 0.0700000003
      vertex 0.2062904239 0.0022615010 0.0700000003
    endloop
  endfacet
  facet normal 0.1063225525 -0.9943316926 0.0000000000
    outer loop
      vertex 0.2062904239 0.0022615010 0.0299999993
      vertex 0.2249595672 0.0042577675 0.0299999993
      vertex 0.2249595672 0.0042577675 0.0700000003
    endloop
  endfacet
  facet normal 0.1063225525 -0.9943316926 0.0000000000
    outer loop
      vertex 0.2062904239 0.0022615010 0.0000000000
      vertex 0.2249595672 0.0042577675 0.0299999993
      vertex 0.2062904239 0.0022615010 0.0299999993
    endloop
  endfacet
  facet normal 0.1063225525 -0.9943316926 0.0000000000
    outer loop
      vertex 0.2062904239 0.0022615010 0.0000000000
      vertex 0.2249595672 0.0042577675 0.0000000000
      vertex 0.2249595672 0.0042577675 0.0299999993
    endloop
  endfacet
  facet normal 0.0638403148 -0.9979601266 0.0000000000
    outer loop
      vertex 0.1875617206 0.0010634108 0.0700000003
      vertex 0.2062904239 0.0022615010 0.1000000015
      vertex 0.1875617206 0.0010634108 0.1000000015
    endloop
  endfacet
  facet normal 0.0638403148 -0.9979601266 0.0000000000
    outer loop
      vertex 0.1875617206 0.0010634108 0.0700000003
      vertex 0.2062904239 0.0022615010 0.0700000003
      vertex 0.2062904239 0.0022615010 0.1000000015
    endloop
  endfacet
  facet normal 0.0638403148 -0.9979601266 0.0000000000
    outer loop
      vertex 0.1875617206 0.0010634108 0.0299999993
      vertex 0.2062904239 0.0022615010 0.0700000003
      vertex 0.1875617206 0.0010634108 0.0700000003
    endloop
  endfacet
  facet normal 0.0638403148 -0.9979601266 0.0000000000
    outer loop
      vertex 0.1875617206 0.0010634108 0.0299999993
      vertex 0.2062904239 0.0022615010 0.0299999993
      vertex 0.2062904239 0.0022615010 0.0700000003
    endloop
  endfacet
  facet normal 0.0638403148 -0.9979601266 0.0000000000
    outer loop
      vertex 0.1875617206 0.0010634108 0.0000000000
      vertex 0.2062904239 0.0022615010 0.0299999993
      vertex 0.1875617206 0.0010634108 0.0299999993
    endloop
  endfacet
  facet normal 0.0638403148 -0.9979601266 0.0000000000
    outer loop
      vertex 0.1875617206 0.0010634108 0.0000000000
      vertex 0.2062904239 0.0022615010 0.0000000000
      vertex 0.2062904239 0.0022615010 0.0299999993
    endloop
  endfacet
  facet normal 0.0241266766 -0.9997089094 0.0000000000
    outer loop
      vertex 0.1500040144 0.0001570043 0.0700000003
      vertex 0.1875617206 0.0010634108 0.1000000015
      vertex 0.1500040144 0.0001570043 0.1000000015
    endloop
  endfacet
  facet normal 0.0241266766 -0.9997089094 0.0000000000
    outer loop
      vertex 0.1500040144 0.0001570043 0.0700000003
      vertex 0.1875617206 0.0010634108 0.0700000003
      vertex 0.1875617206 0.0010634108 0.1000000015
    endloop
  endfacet
  facet normal 0.0241266766 -0.9997089094 0.0000000000
    outer loop
      vertex 0.1500040144 0.0001570043 0.0299999993
      vertex 0.1875617206 0.0010634108 0.0700000003
      vertex 0.1500040144 0.0001570043 0.0700000003
    endloop
  endfacet
  facet normal 0.0241266766 -0.9997089094 0.0000000000
    outer loop
      vertex 0.1500040144 0.0001570043 0.0299999993
      vertex 0.1875617206 0.0010634108 0.0299999993
      vertex 0.1875617206 0.0010634108 0.0700000003
    endloop
  endfacet
  facet normal 0.0241266766 -0.9997089094 0.0000000000
    outer loop
      vertex 0.1500040144 0.0001570043 0.0000000000
      vertex 0.1875617206 0.0010634108 0.0299999993
      vertex 0.1500040144 0.0001570043 0.0299999993
    endloop
  endfacet
  facet normal 0.0241266766 -0.9997089094 0.0000000000
    outer loop
      vertex 0.1500040144 0.0001570043 0.0000000000
      vertex 0.1875617206 0.0010634108 0.0000000000
      vertex 0.1875617206 0.0010634108 0.0299999993
    endloop
  endfacet
  facet normal 0.0046280870 -0.9999892903 0.0000000000
    outer loop
      vertex 0.1124981493 -0.0000165780 0.0700000003
      vertex 0.1500040144 0.0001570043 0.1000000015
      vertex 0.1124981493 -0.0000165780 0.1000000015
    endloop
  endfacet
  facet normal 0.0046280870 -0.9999892903 0.0000000000
    outer loop
      vertex 0.1124981493 -0.0000165780 0.0700000003
      vertex 0.1500040144 0.0001570043 0.0700000003
      vertex 0.1500040144 0.0001570043 0.1000000015
    endloop
  endfacet
  facet normal 0.0046280870 -0.9999892903 0.0000000000
    outer loop
      vertex 0.1124981493 -0.0000165780 0.0299999993
      vertex 0.1500040144 0.0001570043 0.0700000003
      vertex 0.1124981493 -0.0000165780 0.0700000003
    endloop
  endfacet
  facet normal 0.0046280870 -0.9999892903 0.0000000000
    outer loop
      vertex 0.1124981493 -0.0000165780 0.0299999993
      vertex 0.1500040144 0.0001570043 0.0299999993
      vertex 0.1500040144 0.0001570043 0.0700000003
    endloop
  endfacet
  facet normal 0.0046280870 -0.9999892903 0.0000000000
    outer loop
      vertex 0.1124981493 -0.0000165780 0.0000000000
      vertex 0.1500040144 0.0001570043 0.0299999993
      vertex 0.1124981493 -0.0000165780 0.0299999993
    endloop
  endfacet
  facet normal 0.0046280870 -0.9999892903 0.0000000000
    outer loop
      vertex 0.1124981493 -0.0000165780 0.0000000000
      vertex 0.1500040144 0.0001570043 0.0000000000
      vertex 0.1500040144 0.0001570043 0.0299999993
    endloop
  endfacet
  facet normal -0.0005611303 -0.9999998426 0.0000000000
    outer loop
      vertex 0.0749951154 0.0000044661 0.0700000003
      vertex 0.1124981493 -0.0000165780 0.1000000015
      vertex 0.0749951154 0.0000044661 0.1000000015
    endloop
  endfacet
  facet normal -0.0005611303 -0.9999998426 0.0000000000
    outer loop
      vertex 0.0749951154 0.0000044661 0.0700000003
      vertex 0.1124981493 -0.0000165780 0.0700000003
      vertex 0.1124981493 -0.0000165780 0.1000000015
    endloop
  endfacet
  facet normal -0.0005611303 -0.9999998426 0.0000000000
    outer loop
      vertex 0.0749951154 0.0000044661 0.0299999993
      vertex 0.1124981493 -0.0000165780 0.0700000003
      vertex 0.0749951154 0.0000044661 0.0700000003
    endloop
  endfacet
  facet normal -0.0005611303 -0.9999998426 0.0000000000
    outer loop
      vertex 0.0749951154 0.0000044661 0.0299999993
      vertex 0.1124981493 -0.0000165780 0.0299999993
      vertex 0.1124981493 -0.0000165780 0.0700000003
    endloop
  endfacet
  facet normal -0.0005611303 -0.9999998426 0.0000000000
    outer loop
      vertex 0.0749951154 0.0000044661 0.0000000000
      vertex 0.1124981493 -0.0000165780 0.0299999993
      vertex 0.0749951154 0.0000044661 0.0299999993
    endloop
  endfacet
  facet normal -0.0005611303 -0.9999998426 0.0000000000
    outer loop
      vertex 0.0749951154 0.0000044661 0.0000000000
      vertex 0.1124981493 -0.0000165780 0.0000000000
      vertex 0.1124981493 -0.0000165780 0.0299999993
    endloop
  endfacet
  facet normal 0.0000595522 -0.9999999982 0.0000000000
    outer loop
      vertex 0.0000000000 0.0000000000 0.0700000003
      vertex 0.0749951154 0.0000044661 0.1000000015
      vertex 0.0000000000 0.0000000000 0.1000000000
    endloop
  endfacet
  facet normal 0.0000595522 -0.9999999982 0.0000000000
    outer loop
      vertex 0.0000000000 0.0000000000 0.0700000003
      vertex 0.0749951154 0.0000044661 0.0700000003
      vertex 0.0749951154 0.0000044661 0.1000000015
    endloop
  endfacet
  facet normal 0.0000595522 -0.9999999982 0.0000000000
    outer loop
      vertex 0.0000000000 0.0000000000 0.0299999993
      vertex 0.0749951154 0.0000044661 0.0700000003
      vertex 0.0000000000 0.0000000000 0.0700000003
    endloop
  endfacet
  facet normal 0.0000595522 -0.9999999982 0.0000000000
    outer loop
      vertex 0.0000000000 0.0000000000 0.0299999993
      vertex 0.0749951154 0.0000044661 0.0299999993
      vertex 0.0749951154 0.0000044661 0.0700000003
    endloop
  endfacet
  facet normal 0.0000595522 -0.9999999982 0.0000000000
    outer loop
      vertex 0.0000000000 0.0000000000 0.0000000000
      vertex 0.0749951154 0.0000044661 0.0299999993
      vertex 0.0000000000 0.0000000000 0.0299999993
    endloop
  endfacet
  facet normal 0.0000595522 -0.9999999982 0.0000000000
    outer loop
      vertex 0.0000000000 0.0000000000 0.0000000000
      vertex 0.0749951154 0.0000044661 0.0000000000
      vertex 0.0749951154 0.0000044661 0.0299999993
    endloop
  endfacet
endsolid CRVS
